<svg width="30" height="30" viewBox="0 0 41 40" fill="none" xmlns="http://www.w3.org/2000/svg">
<g clip-path="url(#clip0_7_375)">
<g filter="url(#filter0_b_7_375)">
<mask id="path-1-inside-1_7_375" fill="white">
<path fill-rule="evenodd" clip-rule="evenodd" d="M19.3472 10.6881H21.7201C21.7201 10.3158 21.7228 9.95162 21.7255 9.59245C21.7308 8.88862 21.7359 8.20387 21.7201 7.51388C21.6961 6.89101 21.1928 6.43584 20.5936 6.3999C19.9944 6.37595 19.3952 6.79518 19.3592 7.39409C19.3257 8.15562 19.3332 8.91714 19.3407 9.68683C19.344 10.0188 19.3472 10.3524 19.3472 10.6881ZM3.22916 22.3832C2.85657 23.6244 2.4849 24.8626 2.53365 26.1879C2.53365 26.2678 2.53231 26.3476 2.53098 26.4275C2.52832 26.5872 2.52566 26.7469 2.53365 26.9066C2.7973 31.075 6.76401 33.7701 10.7307 32.4525C12.4924 31.8656 13.7507 30.6798 14.4817 28.9789C15.1528 27.4337 16.2314 26.2957 17.8133 25.7328C19.4191 25.1578 21.0849 25.1698 22.7147 25.5651C24.5004 26.0083 25.6508 27.2181 26.3938 28.883C27.6282 31.674 30.7201 33.2671 33.5603 32.6083C36.9757 31.8177 39.2287 28.2362 38.3299 24.8464C37.551 21.8758 36.7121 18.9291 35.7773 16.0064C34.3153 11.4308 28.4311 9.59809 24.8479 12.8801C24.7041 13.0119 24.4524 13.0957 24.2607 13.0957C21.744 13.1077 19.2274 13.1077 16.7107 13.0957C16.495 13.0957 16.2314 13.0119 16.0756 12.8681C12.3965 9.5382 6.38052 11.4907 5.01434 16.246C4.88551 16.6862 4.75593 17.1264 4.62635 17.5666C4.23762 18.8872 3.84889 20.2078 3.48038 21.5284C3.39996 21.8142 3.31454 22.0988 3.22916 22.3832ZM27.4335 20.217C27.5672 20.0876 27.7134 19.946 27.8799 19.7796C27.7522 19.6662 27.6302 19.564 27.5145 19.4671C27.3368 19.3183 27.1741 19.182 27.029 19.0369C26.4178 18.426 26.3819 17.7073 26.8972 17.1923C27.4125 16.6772 28.1315 16.7371 28.7427 17.348C28.9419 17.5471 29.1335 17.7536 29.3651 18.0033C29.4262 18.0691 29.4901 18.1379 29.5576 18.2104C29.6535 18.104 29.7441 18.0007 29.8319 17.9005C30.0406 17.6626 30.2336 17.4425 30.4444 17.2402C30.9837 16.7251 31.6788 16.7132 32.1581 17.1803C32.6615 17.6714 32.6495 18.3901 32.1222 18.9411C31.921 19.1509 31.7008 19.3416 31.438 19.5689C31.3407 19.6531 31.2376 19.7424 31.1275 19.8395C31.2776 19.9798 31.4198 20.1044 31.555 20.2229C31.7545 20.3978 31.9388 20.5593 32.1102 20.7378C32.6495 21.3008 32.6495 22.0195 32.1581 22.4986C31.6548 22.9897 30.9597 22.9658 30.4085 22.4148C30.2297 22.2283 30.066 22.0267 29.8847 21.8034C29.7866 21.6825 29.6833 21.5552 29.5696 21.4206C29.4287 21.5703 29.3055 21.7054 29.1919 21.8301C28.9963 22.0447 28.8287 22.2286 28.6468 22.4028C28.0716 22.9538 27.3885 22.9897 26.8852 22.4986C26.3699 21.9956 26.3938 21.2769 26.9571 20.6899C27.1063 20.534 27.2593 20.3858 27.4335 20.217ZM10.4976 18.6508C10.6369 18.6522 10.7814 18.6536 10.9344 18.6536C10.9344 18.5308 10.9336 18.4163 10.9328 18.3077C10.9306 18.003 10.9288 17.7447 10.9464 17.4798C10.9704 16.7611 11.4737 16.246 12.1448 16.258C12.804 16.258 13.3073 16.773 13.3313 17.5037C13.3391 17.7385 13.3367 17.9733 13.3341 18.2281C13.3327 18.3633 13.3313 18.5041 13.3313 18.6536C13.4698 18.6536 13.6043 18.6522 13.736 18.6509C13.9914 18.6483 14.2366 18.6457 14.4817 18.6536C15.2008 18.6776 15.7161 19.1807 15.7161 19.8395C15.7161 20.5103 15.2008 21.0133 14.4817 21.0373C14.2487 21.0451 14.0207 21.0428 13.765 21.0402C13.6263 21.0388 13.4795 21.0373 13.3193 21.0373C13.3193 21.1728 13.3207 21.3027 13.322 21.4289C13.3247 21.6708 13.3271 21.899 13.3193 22.1273C13.3073 22.9059 12.8399 23.421 12.1448 23.4329C11.4378 23.4449 10.9464 22.9179 10.9344 22.1034V21.0373C10.7809 21.0373 10.636 21.0387 10.4967 21.0401C10.2337 21.0427 9.99088 21.0451 9.74803 21.0373C9.05295 21.0014 8.54963 20.5103 8.53764 19.8754C8.51367 19.2166 9.017 18.6896 9.73604 18.6536C9.98718 18.6458 10.2332 18.6482 10.4976 18.6508Z"/>
</mask>
<path fill-rule="evenodd" clip-rule="evenodd" d="M19.3472 10.6881H21.7201C21.7201 10.3158 21.7228 9.95162 21.7255 9.59245C21.7308 8.88862 21.7359 8.20387 21.7201 7.51388C21.6961 6.89101 21.1928 6.43584 20.5936 6.3999C19.9944 6.37595 19.3952 6.79518 19.3592 7.39409C19.3257 8.15562 19.3332 8.91714 19.3407 9.68683C19.344 10.0188 19.3472 10.3524 19.3472 10.6881ZM3.22916 22.3832C2.85657 23.6244 2.4849 24.8626 2.53365 26.1879C2.53365 26.2678 2.53231 26.3476 2.53098 26.4275C2.52832 26.5872 2.52566 26.7469 2.53365 26.9066C2.7973 31.075 6.76401 33.7701 10.7307 32.4525C12.4924 31.8656 13.7507 30.6798 14.4817 28.9789C15.1528 27.4337 16.2314 26.2957 17.8133 25.7328C19.4191 25.1578 21.0849 25.1698 22.7147 25.5651C24.5004 26.0083 25.6508 27.2181 26.3938 28.883C27.6282 31.674 30.7201 33.2671 33.5603 32.6083C36.9757 31.8177 39.2287 28.2362 38.3299 24.8464C37.551 21.8758 36.7121 18.9291 35.7773 16.0064C34.3153 11.4308 28.4311 9.59809 24.8479 12.8801C24.7041 13.0119 24.4524 13.0957 24.2607 13.0957C21.744 13.1077 19.2274 13.1077 16.7107 13.0957C16.495 13.0957 16.2314 13.0119 16.0756 12.8681C12.3965 9.5382 6.38052 11.4907 5.01434 16.246C4.88551 16.6862 4.75593 17.1264 4.62635 17.5666C4.23762 18.8872 3.84889 20.2078 3.48038 21.5284C3.39996 21.8142 3.31454 22.0988 3.22916 22.3832ZM27.4335 20.217C27.5672 20.0876 27.7134 19.946 27.8799 19.7796C27.7522 19.6662 27.6302 19.564 27.5145 19.4671C27.3368 19.3183 27.1741 19.182 27.029 19.0369C26.4178 18.426 26.3819 17.7073 26.8972 17.1923C27.4125 16.6772 28.1315 16.7371 28.7427 17.348C28.9419 17.5471 29.1335 17.7536 29.3651 18.0033C29.4262 18.0691 29.4901 18.1379 29.5576 18.2104C29.6535 18.104 29.7441 18.0007 29.8319 17.9005C30.0406 17.6626 30.2336 17.4425 30.4444 17.2402C30.9837 16.7251 31.6788 16.7132 32.1581 17.1803C32.6615 17.6714 32.6495 18.3901 32.1222 18.9411C31.921 19.1509 31.7008 19.3416 31.438 19.5689C31.3407 19.6531 31.2376 19.7424 31.1275 19.8395C31.2776 19.9798 31.4198 20.1044 31.555 20.2229C31.7545 20.3978 31.9388 20.5593 32.1102 20.7378C32.6495 21.3008 32.6495 22.0195 32.1581 22.4986C31.6548 22.9897 30.9597 22.9658 30.4085 22.4148C30.2297 22.2283 30.066 22.0267 29.8847 21.8034C29.7866 21.6825 29.6833 21.5552 29.5696 21.4206C29.4287 21.5703 29.3055 21.7054 29.1919 21.8301C28.9963 22.0447 28.8287 22.2286 28.6468 22.4028C28.0716 22.9538 27.3885 22.9897 26.8852 22.4986C26.3699 21.9956 26.3938 21.2769 26.9571 20.6899C27.1063 20.534 27.2593 20.3858 27.4335 20.217ZM10.4976 18.6508C10.6369 18.6522 10.7814 18.6536 10.9344 18.6536C10.9344 18.5308 10.9336 18.4163 10.9328 18.3077C10.9306 18.003 10.9288 17.7447 10.9464 17.4798C10.9704 16.7611 11.4737 16.246 12.1448 16.258C12.804 16.258 13.3073 16.773 13.3313 17.5037C13.3391 17.7385 13.3367 17.9733 13.3341 18.2281C13.3327 18.3633 13.3313 18.5041 13.3313 18.6536C13.4698 18.6536 13.6043 18.6522 13.736 18.6509C13.9914 18.6483 14.2366 18.6457 14.4817 18.6536C15.2008 18.6776 15.7161 19.1807 15.7161 19.8395C15.7161 20.5103 15.2008 21.0133 14.4817 21.0373C14.2487 21.0451 14.0207 21.0428 13.765 21.0402C13.6263 21.0388 13.4795 21.0373 13.3193 21.0373C13.3193 21.1728 13.3207 21.3027 13.322 21.4289C13.3247 21.6708 13.3271 21.899 13.3193 22.1273C13.3073 22.9059 12.8399 23.421 12.1448 23.4329C11.4378 23.4449 10.9464 22.9179 10.9344 22.1034V21.0373C10.7809 21.0373 10.636 21.0387 10.4967 21.0401C10.2337 21.0427 9.99088 21.0451 9.74803 21.0373C9.05295 21.0014 8.54963 20.5103 8.53764 19.8754C8.51367 19.2166 9.017 18.6896 9.73604 18.6536C9.98718 18.6458 10.2332 18.6482 10.4976 18.6508Z" fill="#E60000"/>
<path d="M21.7201 10.6881V11.6881H22.7201V10.6881H21.7201ZM19.3472 10.6881H18.3472V11.6881H19.3472V10.6881ZM21.7255 9.59245L20.7255 9.58493V9.58493L21.7255 9.59245ZM21.7201 7.51388L22.7198 7.49088L22.7196 7.48315L22.7193 7.47543L21.7201 7.51388ZM20.5936 6.3999L20.6534 5.4017L20.6435 5.4011L20.6335 5.4007L20.5936 6.3999ZM19.3592 7.39409L18.361 7.33417L18.3605 7.34216L18.3602 7.35016L19.3592 7.39409ZM19.3407 9.68683L20.3407 9.67704V9.67703L19.3407 9.68683ZM2.53365 26.1879H3.53365V26.1695L3.53297 26.1512L2.53365 26.1879ZM3.22916 22.3832L4.18694 22.6707L3.22916 22.3832ZM2.53098 26.4275L1.53112 26.4108L2.53098 26.4275ZM2.53365 26.9066L1.53481 26.9566L1.53564 26.9697L2.53365 26.9066ZM10.7307 32.4525L11.0459 33.4016L11.0468 33.4013L10.7307 32.4525ZM14.4817 28.9789L13.5645 28.5805L13.563 28.584L14.4817 28.9789ZM17.8133 25.7328L18.1486 26.6749L18.1504 26.6742L17.8133 25.7328ZM22.7147 25.5651L22.9556 24.5945L22.9504 24.5932L22.7147 25.5651ZM26.3938 28.883L27.3084 28.4785L27.307 28.4755L26.3938 28.883ZM33.5603 32.6083L33.3348 31.634L33.3343 31.6341L33.5603 32.6083ZM38.3299 24.8464L37.3626 25.1L37.3633 25.1027L38.3299 24.8464ZM35.7773 16.0064L34.8248 16.3108L34.8248 16.3111L35.7773 16.0064ZM24.8479 12.8801L24.1725 12.1427L24.1723 12.1428L24.8479 12.8801ZM24.2607 13.0957V12.0957L24.2559 12.0957L24.2607 13.0957ZM16.7107 13.0957L16.7155 12.0957H16.7107V13.0957ZM16.0756 12.8681L16.7537 12.1331L16.7466 12.1267L16.0756 12.8681ZM5.01434 16.246L5.97409 16.5269L5.97546 16.5221L5.01434 16.246ZM4.62635 17.5666L3.66705 17.2842L3.66705 17.2842L4.62635 17.5666ZM3.48038 21.5284L4.443 21.7993L4.44359 21.7972L3.48038 21.5284ZM27.8799 19.7796L28.5868 20.4869L29.3373 19.7368L28.544 19.032L27.8799 19.7796ZM27.4335 20.217L26.7378 19.4988L26.7378 19.4988L27.4335 20.217ZM27.5145 19.4671L28.1566 18.7004L28.1566 18.7004L27.5145 19.4671ZM27.029 19.0369L27.7359 18.3297L27.7359 18.3297L27.029 19.0369ZM26.8972 17.1923L26.1902 16.485V16.485L26.8972 17.1923ZM28.7427 17.348L29.4496 16.6407L28.7427 17.348ZM29.3651 18.0033L30.0982 17.3231L30.0982 17.3231L29.3651 18.0033ZM29.5576 18.2104L28.8259 18.892L29.5701 19.691L30.3007 18.8796L29.5576 18.2104ZM29.8319 17.9005L29.0801 17.2411L29.0801 17.2411L29.8319 17.9005ZM30.4444 17.2402L29.7537 16.517L29.7521 16.5186L30.4444 17.2402ZM32.1581 17.1803L32.8565 16.4646L32.8561 16.4641L32.1581 17.1803ZM32.1222 18.9411L32.844 19.6332L32.8447 19.6325L32.1222 18.9411ZM31.438 19.5689L30.7836 18.8128L30.7836 18.8128L31.438 19.5689ZM31.1275 19.8395L30.4661 19.0895L29.6402 19.8178L30.4445 20.5699L31.1275 19.8395ZM31.555 20.2229L32.2141 19.4709V19.4709L31.555 20.2229ZM32.1102 20.7378L32.8324 20.0461L32.8314 20.0451L32.1102 20.7378ZM32.1581 22.4986L31.46 21.7827L31.4598 21.7829L32.1581 22.4986ZM30.4085 22.4148L29.6867 23.1069L29.694 23.1145L29.7015 23.1221L30.4085 22.4148ZM29.8847 21.8034L29.1084 22.4337H29.1084L29.8847 21.8034ZM29.5696 21.4206L30.3337 20.7755L29.6104 19.9186L28.8416 20.7351L29.5696 21.4206ZM29.1919 21.8301L29.931 22.5037L29.931 22.5037L29.1919 21.8301ZM28.6468 22.4028L27.9551 21.6807H27.9551L28.6468 22.4028ZM26.8852 22.4986L26.1866 23.2142L26.1868 23.2144L26.8852 22.4986ZM26.9571 20.6899L27.6786 21.3823L27.6796 21.3813L26.9571 20.6899ZM10.9344 18.6536V19.6536H11.9344V18.6536H10.9344ZM10.4976 18.6508L10.4877 19.6508H10.4877L10.4976 18.6508ZM10.9328 18.3077L11.9328 18.3005V18.3005L10.9328 18.3077ZM10.9464 17.4798L11.9442 17.5463L11.9453 17.5297L11.9459 17.5131L10.9464 17.4798ZM12.1448 16.258L12.127 17.2578L12.1359 17.258H12.1448V16.258ZM13.3313 17.5037L12.3318 17.5365L12.3318 17.5371L13.3313 17.5037ZM13.3341 18.2281L14.334 18.2383V18.2383L13.3341 18.2281ZM13.3313 18.6536H12.3313V19.6536H13.3313V18.6536ZM13.736 18.6509L13.7463 19.6508H13.7463L13.736 18.6509ZM14.4817 18.6536L14.515 17.6542L14.5139 17.6541L14.4817 18.6536ZM14.4817 21.0373L14.4484 20.0378L14.4484 20.0378L14.4817 21.0373ZM13.765 21.0402L13.7751 20.0402H13.7751L13.765 21.0402ZM13.3193 21.0373V20.0373H12.3193V21.0373H13.3193ZM13.322 21.4289L14.322 21.418V21.418L13.322 21.4289ZM13.3193 22.1273L12.3199 22.0928L12.3195 22.1024L12.3194 22.1119L13.3193 22.1273ZM12.1448 23.4329L12.1618 24.4328L12.1621 24.4328L12.1448 23.4329ZM10.9344 22.1034H9.93445V22.1107L9.93455 22.1181L10.9344 22.1034ZM10.9344 21.0373H11.9344V20.0373H10.9344V21.0373ZM10.4967 21.0401L10.5066 22.0401H10.5066L10.4967 21.0401ZM9.74803 21.0373L9.6964 22.036L9.7061 22.0365L9.7158 22.0368L9.74803 21.0373ZM8.53764 19.8754L9.53746 19.8565L9.5373 19.8478L9.53698 19.839L8.53764 19.8754ZM9.73604 18.6536L9.70482 17.6541L9.69547 17.6544L9.68613 17.6549L9.73604 18.6536ZM21.7201 9.68811H19.3472V11.6881H21.7201V9.68811ZM20.7255 9.58493C20.7228 9.94355 20.7201 10.3114 20.7201 10.6881H22.7201C22.7201 10.3201 22.7228 9.95968 22.7255 9.59996L20.7255 9.58493ZM20.7203 7.53687C20.7358 8.20907 20.7308 8.87854 20.7255 9.58493L22.7255 9.59996C22.7307 8.89869 22.7361 8.19868 22.7198 7.49088L20.7203 7.53687ZM20.5337 7.39811C20.5988 7.40201 20.6488 7.42819 20.679 7.45718C20.7049 7.4822 20.7192 7.51067 20.7208 7.55233L22.7193 7.47543C22.6736 6.28619 21.7118 5.46517 20.6534 5.4017L20.5337 7.39811ZM20.3574 7.45402C20.3567 7.46661 20.3523 7.4769 20.3505 7.48003C20.3499 7.48116 20.3557 7.47083 20.3757 7.45542C20.3958 7.43992 20.4243 7.42409 20.4588 7.413C20.4931 7.40198 20.526 7.398 20.5536 7.3991L20.6335 5.4007C19.6428 5.36109 18.438 6.05109 18.361 7.33417L20.3574 7.45402ZM20.3407 9.67703C20.3331 8.9028 20.3261 8.16821 20.3582 7.43803L18.3602 7.35016C18.3253 8.14302 18.3333 8.93147 18.3408 9.69662L20.3407 9.67703ZM20.3472 10.6881C20.3472 10.3467 20.3439 10.0083 20.3407 9.67704L18.3408 9.69661C18.344 10.0294 18.3472 10.3581 18.3472 10.6881H20.3472ZM3.53297 26.1512C3.49129 25.0181 3.80669 23.9374 4.18694 22.6707L2.27139 22.0957C1.90644 23.3114 1.4785 24.7071 1.53432 26.2247L3.53297 26.1512ZM3.53084 26.4442C3.53215 26.3657 3.53365 26.2775 3.53365 26.1879H1.53365C1.53365 26.2581 1.53248 26.3296 1.53112 26.4108L3.53084 26.4442ZM3.5324 26.8567C3.52635 26.7358 3.52809 26.6094 3.53084 26.4442L1.53112 26.4108C1.52855 26.565 1.52496 26.758 1.5349 26.9566L3.5324 26.8567ZM10.4155 31.5035C7.07525 32.613 3.75418 30.3618 3.53165 26.8435L1.53564 26.9697C1.84041 31.7883 6.45276 34.9273 11.0459 33.4016L10.4155 31.5035ZM13.563 28.584C12.9411 30.0309 11.8973 31.0098 10.4146 31.5038L11.0468 33.4013C13.0874 32.7214 14.5602 31.3287 15.4005 29.3737L13.563 28.584ZM17.478 24.7906C15.5943 25.461 14.3274 26.824 13.5645 28.5805L15.3989 29.3772C15.9783 28.0433 16.8684 27.1305 18.1486 26.6749L17.478 24.7906ZM22.9504 24.5932C21.1723 24.162 19.3023 24.1375 17.4762 24.7913L18.1504 26.6742C19.5359 26.1782 20.9975 26.1776 22.479 26.5369L22.9504 24.5932ZM27.307 28.4755C26.4743 26.6095 25.116 25.1307 22.9556 24.5945L22.4738 26.5356C23.8847 26.8858 24.8273 27.8266 25.4806 29.2906L27.307 28.4755ZM33.3343 31.6341C30.9869 32.1786 28.3592 30.8545 27.3084 28.4785L25.4793 29.2875C26.8972 32.4934 30.4532 34.3555 33.7862 33.5824L33.3343 31.6341ZM37.3633 25.1027C38.1114 27.9241 36.2231 30.9655 33.3348 31.634L33.7858 33.5825C37.7284 32.6699 40.346 28.5484 39.2965 24.5901L37.3633 25.1027ZM34.8248 16.3111C35.7531 19.2135 36.5871 22.1427 37.3626 25.1L39.2972 24.5927C38.5148 21.6088 37.671 18.6448 36.7298 15.7018L34.8248 16.3111ZM25.5233 13.6175C28.5199 10.8728 33.5645 12.3665 34.8248 16.3108L36.7299 15.7021C35.0661 10.495 28.3423 8.32336 24.1725 12.1427L25.5233 13.6175ZM24.2607 14.0957C24.6611 14.0957 25.1668 13.9442 25.5234 13.6174L24.1723 12.1428C24.2027 12.115 24.225 12.1019 24.2314 12.0983C24.2387 12.0941 24.2403 12.0941 24.2361 12.0955C24.2344 12.0961 24.2326 12.0967 24.2309 12.0972C24.2291 12.0976 24.2282 12.0978 24.2285 12.0978C24.2287 12.0977 24.231 12.0973 24.2356 12.0968C24.2401 12.0964 24.2485 12.0957 24.2607 12.0957V14.0957ZM16.706 14.0957C19.2258 14.1077 21.7456 14.1077 24.2654 14.0957L24.2559 12.0957C21.7424 12.1077 19.229 12.1077 16.7155 12.0957L16.706 14.0957ZM15.3975 13.6031C15.777 13.9533 16.3024 14.0957 16.7107 14.0957V12.0957C16.7203 12.0957 16.7214 12.0965 16.7156 12.0955C16.7101 12.0945 16.7036 12.0929 16.6981 12.091C16.6924 12.089 16.693 12.0886 16.6998 12.0924C16.706 12.0959 16.7262 12.1078 16.7537 12.1332L15.3975 13.6031ZM5.97546 16.5221C7.15473 12.4174 12.3201 10.8179 15.4045 13.6096L16.7466 12.1267C12.4729 8.25854 5.6063 10.5639 4.05322 15.9699L5.97546 16.5221ZM5.58565 17.849C5.7152 17.4089 5.845 16.968 5.97408 16.5269L4.0546 15.9651C3.92602 16.4045 3.79666 16.8439 3.66705 17.2842L5.58565 17.849ZM4.44359 21.7972C4.80987 20.4845 5.19658 19.1707 5.58565 17.849L3.66705 17.2842C3.27866 18.6037 2.88791 19.9311 2.51718 21.2596L4.44359 21.7972ZM4.18694 22.6707C4.2719 22.3877 4.35984 22.0948 4.443 21.7993L2.51777 21.2575C2.44008 21.5336 2.35718 21.8099 2.27139 22.0957L4.18694 22.6707ZM27.1729 19.0723C27.0126 19.2325 26.8716 19.3691 26.7378 19.4988L28.1293 20.9353C28.2628 20.806 28.4141 20.6595 28.5868 20.4869L27.1729 19.0723ZM26.8724 20.2337C26.9892 20.3315 27.1005 20.4248 27.2157 20.5272L28.544 19.032C28.4039 18.9075 28.2712 18.7964 28.1566 18.7004L26.8724 20.2337ZM26.3221 19.7442C26.504 19.926 26.702 20.091 26.8724 20.2337L28.1566 18.7004C27.9717 18.5456 27.8443 18.438 27.7359 18.3297L26.3221 19.7442ZM26.1902 16.485C25.7492 16.9258 25.5012 17.5087 25.5428 18.144C25.5832 18.7619 25.8885 19.3108 26.3221 19.7442L27.7359 18.3297C27.5583 18.1521 27.54 18.0363 27.5385 18.0134C27.5377 18.0011 27.5391 17.9927 27.5433 17.9822C27.548 17.9705 27.5623 17.9414 27.6041 17.8996L26.1902 16.485ZM29.4496 16.6407C29.0224 16.2137 28.4806 15.903 27.8678 15.8514C27.2318 15.798 26.6398 16.0356 26.1902 16.485L27.6041 17.8996C27.6429 17.8608 27.6679 17.8498 27.6749 17.8472C27.6808 17.8449 27.6869 17.8433 27.7002 17.8444C27.7285 17.8468 27.8518 17.8714 28.0358 18.0553L29.4496 16.6407ZM30.0982 17.3231C29.8693 17.0764 29.6645 16.8555 29.4496 16.6407L28.0358 18.0553C28.2192 18.2386 28.3976 18.4308 28.6321 18.6834L30.0982 17.3231ZM30.2893 17.5288C30.2226 17.4572 30.1594 17.389 30.0982 17.3231L28.6321 18.6834C28.6931 18.7492 28.7576 18.8187 28.8259 18.892L30.2893 17.5288ZM29.0801 17.2411C28.9917 17.3419 28.9053 17.4404 28.8145 17.5413L30.3007 18.8796C30.4017 18.7675 30.4965 18.6594 30.5838 18.5599L29.0801 17.2411ZM29.7521 16.5186C29.5048 16.7559 29.2834 17.0093 29.0801 17.2411L30.5838 18.5599C30.7978 18.3158 30.9624 18.1291 31.1368 17.9618L29.7521 16.5186ZM32.8561 16.4641C32.4327 16.0515 31.8802 15.8249 31.2939 15.8424C30.7134 15.8597 30.1769 16.1129 29.7538 16.517L31.1351 17.9634C31.2512 17.8525 31.3319 17.8421 31.3536 17.8415C31.3695 17.841 31.4043 17.842 31.4602 17.8965L32.8561 16.4641ZM32.8447 19.6325C33.2565 19.2021 33.515 18.6527 33.5265 18.0576C33.5381 17.4552 33.2939 16.8913 32.8565 16.4646L31.4598 17.8961C31.5257 17.9604 31.5272 18.0014 31.5268 18.0189C31.5264 18.0437 31.5151 18.1291 31.3997 18.2497L32.8447 19.6325ZM32.0924 20.3251C32.3476 20.1043 32.6048 19.8827 32.844 19.6332L31.4004 18.249C31.2373 18.4191 31.0539 18.5788 30.7836 18.8128L32.0924 20.3251ZM31.789 20.5895C31.8951 20.4959 31.9948 20.4096 32.0924 20.3251L30.7836 18.8128C30.6867 18.8967 30.5802 18.9888 30.4661 19.0895L31.789 20.5895ZM32.2141 19.4709C32.0778 19.3514 31.9472 19.2368 31.8105 19.109L30.4445 20.5699C30.608 20.7227 30.7617 20.8574 30.8958 20.9749L32.2141 19.4709ZM32.8314 20.0451C32.6251 19.8303 32.4078 19.6407 32.2141 19.4709L30.8958 20.9749C31.1012 21.1549 31.2524 21.2883 31.389 21.4305L32.8314 20.0451ZM32.8563 23.2146C33.2887 22.7929 33.5321 22.2316 33.5205 21.6304C33.509 21.0348 33.2502 20.4823 32.8324 20.0461L31.3881 21.4296C31.5095 21.5564 31.5204 21.6447 31.5209 21.669C31.5212 21.6876 31.5189 21.7252 31.46 21.7827L32.8563 23.2146ZM29.7015 23.1221C30.1205 23.5408 30.6584 23.8201 31.2572 23.8465C31.8648 23.8733 32.4265 23.6339 32.8565 23.2144L31.4598 21.7829C31.4197 21.822 31.3904 21.837 31.3764 21.8426C31.3633 21.8479 31.3543 21.8489 31.3453 21.8485C31.333 21.8479 31.2478 21.8398 31.1154 21.7075L29.7015 23.1221ZM29.1084 22.4337C29.2845 22.6506 29.4743 22.8853 29.6867 23.1069L31.1303 21.7227C30.9851 21.5712 30.8475 21.4027 30.6611 21.1731L29.1084 22.4337ZM28.8055 22.0656C28.9121 22.1919 29.0096 22.312 29.1084 22.4337L30.6611 21.1731C30.5635 21.053 30.4545 20.9186 30.3337 20.7755L28.8055 22.0656ZM29.931 22.5037C30.045 22.3786 30.163 22.2491 30.2976 22.1061L28.8416 20.7351C28.6943 20.8914 28.5661 21.0322 28.4527 21.1565L29.931 22.5037ZM29.3386 23.125C29.5493 22.9231 29.7399 22.7133 29.931 22.5037L28.4528 21.1565C28.2526 21.3761 28.1082 21.534 27.9551 21.6807L29.3386 23.125ZM26.1868 23.2144C26.6192 23.6363 27.1821 23.873 27.7929 23.8401C28.3882 23.808 28.919 23.5269 29.3386 23.125L27.9551 21.6807C27.7994 21.8298 27.7011 21.8421 27.6852 21.843C27.6763 21.8434 27.67 21.8425 27.6608 21.8389C27.6506 21.8348 27.6234 21.8218 27.5835 21.7829L26.1868 23.2144ZM26.2356 19.9975C25.8195 20.4311 25.5404 20.9807 25.5174 21.5878C25.4939 22.208 25.743 22.7811 26.1866 23.2142L27.5837 21.7831C27.5436 21.7439 27.5285 21.7151 27.5228 21.7015C27.5174 21.6885 27.5154 21.6775 27.516 21.6636C27.5169 21.6389 27.5314 21.5357 27.6786 21.3823L26.2356 19.9975ZM26.7378 19.4988C26.5661 19.665 26.3992 19.8265 26.2346 19.9985L27.6796 21.3813C27.8133 21.2415 27.9524 21.1066 28.1293 20.9353L26.7378 19.4988ZM10.9344 17.6536C10.7871 17.6536 10.6474 17.6523 10.5075 17.6509L10.4877 19.6508C10.6265 19.6521 10.7757 19.6536 10.9344 19.6536V17.6536ZM9.93286 18.3149C9.93365 18.4239 9.93445 18.535 9.93445 18.6536H11.9344C11.9344 18.5267 11.9336 18.4087 11.9328 18.3005L9.93286 18.3149ZM9.94865 17.4132C9.92809 17.7214 9.93071 18.0173 9.93286 18.3149L11.9328 18.3005C11.9306 17.9888 11.9294 17.7679 11.9442 17.5463L9.94865 17.4132ZM12.1627 15.2581C10.8797 15.2352 9.98689 16.25 9.94698 17.4464L11.9459 17.5131C11.9503 17.3807 11.9951 17.3173 12.0172 17.2947C12.0355 17.276 12.0635 17.2567 12.127 17.2578L12.1627 15.2581ZM14.3307 17.4709C14.2913 16.2709 13.4108 15.258 12.1448 15.258V17.258C12.2028 17.258 12.2326 17.2762 12.2547 17.2992C12.2798 17.3254 12.3271 17.3948 12.3318 17.5365L14.3307 17.4709ZM14.334 18.2383C14.3366 17.9876 14.3394 17.7307 14.3307 17.4704L12.3318 17.5371C12.3388 17.7463 12.3368 17.9589 12.3341 18.2178L14.334 18.2383ZM14.3313 18.6536C14.3313 18.51 14.3326 18.3741 14.334 18.2383L12.3341 18.2178C12.3327 18.3525 12.3313 18.4983 12.3313 18.6536H14.3313ZM13.7257 17.6509C13.5933 17.6523 13.4639 17.6536 13.3313 17.6536V19.6536C13.4758 19.6536 13.6153 19.6522 13.7463 19.6508L13.7257 17.6509ZM14.5139 17.6541C14.2439 17.6454 13.9774 17.6483 13.7257 17.6509L13.7463 19.6508C14.0055 19.6482 14.2292 19.646 14.4495 19.6531L14.5139 17.6541ZM16.7161 19.8395C16.7161 18.5788 15.7083 17.6939 14.515 17.6542L14.4484 19.6531C14.5807 19.6575 14.6475 19.7024 14.674 19.728C14.6977 19.7508 14.7161 19.7816 14.7161 19.8395H16.7161ZM14.515 22.0367C15.7151 21.9968 16.7161 21.1058 16.7161 19.8395H14.7161C14.7161 19.9082 14.6941 19.942 14.6715 19.9639C14.6459 19.9888 14.5805 20.0334 14.4484 20.0378L14.515 22.0367ZM13.7549 22.0401C14.0067 22.0427 14.2566 22.0454 14.515 22.0367L14.4484 20.0378C14.2408 20.0448 14.0347 20.0428 13.7751 20.0402L13.7549 22.0401ZM13.3193 22.0373C13.4737 22.0373 13.6158 22.0387 13.755 22.0401L13.7751 20.0402C13.6368 20.0388 13.4852 20.0373 13.3193 20.0373V22.0373ZM14.322 21.418C14.3206 21.2912 14.3193 21.1666 14.3193 21.0373H12.3193C12.3193 21.1791 12.3207 21.3142 12.3221 21.4397L14.322 21.418ZM14.3187 22.1618C14.3275 21.907 14.3246 21.6558 14.322 21.418L12.3221 21.4397C12.3248 21.6857 12.3268 21.8911 12.3199 22.0928L14.3187 22.1618ZM12.1621 24.4328C12.766 24.4224 13.3266 24.1856 13.7309 23.7373C14.1273 23.2977 14.3102 22.7268 14.3191 22.1427L12.3194 22.1119C12.3164 22.3065 12.2596 22.3824 12.2456 22.3979C12.2375 22.4069 12.2296 22.4126 12.2184 22.4175C12.2066 22.4227 12.1788 22.4322 12.1276 22.4331L12.1621 24.4328ZM9.93455 22.1181C9.94342 22.7204 10.1325 23.3072 10.5418 23.7538C10.9602 24.2103 11.5408 24.4433 12.1618 24.4328L12.1279 22.4331C12.0785 22.4339 12.0525 22.4254 12.0424 22.4212C12.0328 22.4172 12.0251 22.4121 12.0162 22.4024C12 22.3848 11.9375 22.3009 11.9343 22.0886L9.93455 22.1181ZM9.93445 21.0373V22.1034H11.9344V21.0373H9.93445ZM10.5066 22.0401C10.6464 22.0387 10.7866 22.0373 10.9344 22.0373V20.0373C10.7752 20.0373 10.6255 20.0388 10.4868 20.0402L10.5066 22.0401ZM9.7158 22.0368C9.98337 22.0454 10.2476 22.0426 10.5066 22.0401L10.4868 20.0402C10.2199 20.0428 9.99839 20.0448 9.78025 20.0378L9.7158 22.0368ZM7.53782 19.8943C7.56087 21.1155 8.54088 21.9762 9.6964 22.036L9.79966 20.0386C9.67634 20.0323 9.60996 19.9892 9.58092 19.9612C9.55423 19.9355 9.53837 19.9047 9.53746 19.8565L7.53782 19.8943ZM9.68613 17.6549C8.47679 17.7153 7.49247 18.6519 7.5383 19.9118L9.53698 19.839C9.53496 19.7836 9.55194 19.7519 9.5749 19.7283C9.59975 19.7028 9.66156 19.6586 9.78596 19.6524L9.68613 17.6549ZM10.5075 17.6509C10.2465 17.6483 9.97994 17.6455 9.70482 17.6541L9.76726 19.6531C9.99441 19.646 10.2198 19.6481 10.4877 19.6508L10.5075 17.6509Z" fill="#E60000" mask="url(#path-1-inside-1_7_375)"/>
</g>
</g>
<defs>
<filter id="filter0_b_7_375" x="-9.47168" y="-5.60107" width="60" height="50.3901" filterUnits="userSpaceOnUse" color-interpolation-filters="sRGB">
<feFlood flood-opacity="0" result="BackgroundImageFix"/>
<feGaussianBlur in="BackgroundImageFix" stdDeviation="6"/>
<feComposite in2="SourceAlpha" operator="in" result="effect1_backgroundBlur_7_375"/>
<feBlend mode="normal" in="SourceGraphic" in2="effect1_backgroundBlur_7_375" result="shape"/>
</filter>
<clipPath id="clip0_7_375">
<rect width="36" height="26.4" fill="white" transform="translate(2.5332 6.3999)"/>
</clipPath>
</defs>
</svg>
