<svg width="25" height="30" viewBox="0 0 40 40" fill="none" xmlns="http://www.w3.org/2000/svg">
<g clip-path="url(#clip0_7_365)">
<g filter="url(#filter0_b_7_365)">
<mask id="path-1-inside-1_7_365" fill="white">
<path fill-rule="evenodd" clip-rule="evenodd" d="M33.1362 6.2002H20.1302H7.13638C5.81747 6.2002 5.4511 6.56565 5.4511 7.84474V21.6102C5.4511 22.8771 5.82968 23.2547 7.07532 23.2547H33.1362C34.3818 23.2547 34.7604 22.8771 34.7604 21.6102V7.84474C34.7604 6.57783 34.3818 6.2002 33.1362 6.2002ZM3.37502 33.0002H20.0447H36.8487C37.1418 33.0002 37.4593 32.988 37.7402 32.8906C38.3874 32.6713 38.5828 32.1353 38.2531 31.5384C37.0932 29.4192 35.921 27.3121 34.7489 25.2051L34.7482 25.2038C34.4673 24.7166 34.0643 24.4729 33.5026 24.4729H6.69675C6.13498 24.4729 5.73198 24.7166 5.46331 25.2038L5.46329 25.2039C4.29093 27.3113 3.11856 29.4188 1.95841 31.5384C1.62868 32.1353 1.83629 32.6713 2.48353 32.8906C2.7522 32.988 3.06972 33.0002 3.37502 33.0002ZM20.8629 30.5665C20.6065 30.5652 20.35 30.5638 20.0935 30.5638C19.8375 30.5638 19.5815 30.5652 19.3251 30.5665C18.8108 30.5692 18.2947 30.572 17.7732 30.5638C16.9916 30.5517 16.4543 30.0644 16.4421 29.37C16.4299 28.6513 16.9794 28.1397 17.7976 28.1397C19.3364 28.1275 20.8873 28.1275 22.4261 28.1397C23.2077 28.1518 23.745 28.6391 23.7572 29.3335C23.7694 30.04 23.2199 30.5517 22.4017 30.5638C21.8887 30.572 21.3758 30.5692 20.8629 30.5665Z"/>
</mask>
<path fill-rule="evenodd" clip-rule="evenodd" d="M33.1362 6.2002H20.1302H7.13638C5.81747 6.2002 5.4511 6.56565 5.4511 7.84474V21.6102C5.4511 22.8771 5.82968 23.2547 7.07532 23.2547H33.1362C34.3818 23.2547 34.7604 22.8771 34.7604 21.6102V7.84474C34.7604 6.57783 34.3818 6.2002 33.1362 6.2002ZM3.37502 33.0002H20.0447H36.8487C37.1418 33.0002 37.4593 32.988 37.7402 32.8906C38.3874 32.6713 38.5828 32.1353 38.2531 31.5384C37.0932 29.4192 35.921 27.3121 34.7489 25.2051L34.7482 25.2038C34.4673 24.7166 34.0643 24.4729 33.5026 24.4729H6.69675C6.13498 24.4729 5.73198 24.7166 5.46331 25.2038L5.46329 25.2039C4.29093 27.3113 3.11856 29.4188 1.95841 31.5384C1.62868 32.1353 1.83629 32.6713 2.48353 32.8906C2.7522 32.988 3.06972 33.0002 3.37502 33.0002ZM20.8629 30.5665C20.6065 30.5652 20.35 30.5638 20.0935 30.5638C19.8375 30.5638 19.5815 30.5652 19.3251 30.5665C18.8108 30.5692 18.2947 30.572 17.7732 30.5638C16.9916 30.5517 16.4543 30.0644 16.4421 29.37C16.4299 28.6513 16.9794 28.1397 17.7976 28.1397C19.3364 28.1275 20.8873 28.1275 22.4261 28.1397C23.2077 28.1518 23.745 28.6391 23.7572 29.3335C23.7694 30.04 23.2199 30.5517 22.4017 30.5638C21.8887 30.572 21.3758 30.5692 20.8629 30.5665Z" fill="#E60000"/>
<path d="M37.7402 32.8906L37.4193 31.9434L37.4124 31.9458L37.7402 32.8906ZM38.2531 31.5384L37.3759 32.0185L37.3778 32.0219L38.2531 31.5384ZM34.7489 25.2051L35.6228 24.719L35.6219 24.7175L34.7489 25.2051ZM34.7482 25.2038L35.6213 24.7161L35.6146 24.7044L34.7482 25.2038ZM5.46331 25.2038L6.33821 25.6882L6.33902 25.6867L5.46331 25.2038ZM5.46329 25.2039L6.33717 25.69L6.33818 25.6882L5.46329 25.2039ZM1.95841 31.5384L2.83374 32.0219L2.83561 32.0185L1.95841 31.5384ZM2.48353 32.8906L2.82452 31.9505L2.8145 31.9469L2.8044 31.9434L2.48353 32.8906ZM20.8629 30.5665L20.8576 31.5665H20.8576L20.8629 30.5665ZM19.3251 30.5665L19.3198 29.5665H19.3198L19.3251 30.5665ZM17.7732 30.5638L17.7888 29.564H17.7888L17.7732 30.5638ZM16.4421 29.37L15.4422 29.387L15.4422 29.3876L16.4421 29.37ZM17.7976 28.1397V29.1397L17.8056 29.1396L17.7976 28.1397ZM22.4261 28.1397L22.4417 27.1397L22.434 27.1397L22.4261 28.1397ZM23.7572 29.3335L24.7571 29.3162L24.7571 29.3159L23.7572 29.3335ZM22.4017 30.5638L22.3868 29.5639L22.3858 29.564L22.4017 30.5638ZM20.1302 7.2002H33.1362V5.2002H20.1302V7.2002ZM7.13638 7.2002H20.1302V5.2002H7.13638V7.2002ZM6.4511 7.84474C6.4511 7.56242 6.47248 7.39449 6.49756 7.29675C6.51962 7.21081 6.53293 7.22386 6.49897 7.25713C6.46632 7.28911 6.45858 7.27226 6.55623 7.24816C6.66382 7.22161 6.8429 7.2002 7.13638 7.2002V5.2002C6.46158 5.2002 5.6653 5.274 5.09933 5.82849C4.52634 6.38985 4.4511 7.18462 4.4511 7.84474H6.4511ZM6.4511 21.6102V7.84474H4.4511V21.6102H6.4511ZM7.07532 22.2547C6.805 22.2547 6.64329 22.2332 6.5495 22.2086C6.46663 22.1869 6.4764 22.1734 6.5066 22.2039C6.53621 22.2338 6.52096 22.241 6.49817 22.1524C6.47278 22.0538 6.4511 21.8864 6.4511 21.6102H4.4511C4.4511 22.2747 4.53338 23.0537 5.08559 23.6113C5.64098 24.172 6.41888 24.2547 7.07532 24.2547V22.2547ZM33.1362 22.2547H7.07532V24.2547H33.1362V22.2547ZM33.7604 21.6102C33.7604 21.8864 33.7387 22.0538 33.7133 22.1524C33.6905 22.241 33.6753 22.2338 33.7049 22.2039C33.7351 22.1734 33.7449 22.1869 33.662 22.2086C33.5682 22.2332 33.4065 22.2547 33.1362 22.2547V24.2547C33.7926 24.2547 34.5705 24.172 35.1259 23.6113C35.6781 23.0537 35.7604 22.2747 35.7604 21.6102H33.7604ZM33.7604 7.84474V21.6102H35.7604V7.84474H33.7604ZM33.1362 7.2002C33.4065 7.2002 33.5682 7.22176 33.662 7.24634C33.7449 7.26805 33.7351 7.28156 33.7049 7.25107C33.6753 7.22117 33.6905 7.21392 33.7133 7.30251C33.7387 7.40118 33.7604 7.56853 33.7604 7.84474H35.7604C35.7604 7.18021 35.6781 6.40124 35.1259 5.84368C34.5705 5.28292 33.7926 5.2002 33.1362 5.2002V7.2002ZM20.0447 32.0002H3.37502V34.0002H20.0447V32.0002ZM36.8487 32.0002H20.0447V34.0002H36.8487V32.0002ZM37.4124 31.9458C37.3051 31.983 37.1379 32.0002 36.8487 32.0002V34.0002C37.1457 34.0002 37.6135 33.993 38.068 33.8353L37.4124 31.9458ZM37.3778 32.0219C37.4102 32.0806 37.4123 32.1066 37.4115 32.0999C37.411 32.0961 37.4099 32.0846 37.4118 32.0668C37.4137 32.0489 37.4182 32.0275 37.4267 32.0049C37.4352 31.9821 37.4462 31.9621 37.4578 31.9458C37.4692 31.9296 37.4793 31.9198 37.4843 31.9155C37.494 31.9071 37.4798 31.923 37.4193 31.9434L38.0611 33.8377C38.5882 33.6591 39.0788 33.2952 39.2993 32.7073C39.518 32.1244 39.392 31.5319 39.1284 31.0549L37.3778 32.0219ZM33.875 25.6912C35.0474 27.7988 36.2179 29.9028 37.3759 32.0185L39.1303 31.0583C37.9685 28.9355 36.7946 26.8255 35.6228 24.719L33.875 25.6912ZM33.8752 25.6915L33.8759 25.6927L35.6219 24.7175L35.6212 24.7162L33.8752 25.6915ZM33.5026 25.4729C33.6341 25.4729 33.6936 25.4998 33.7218 25.5165C33.752 25.5343 33.8098 25.5784 33.8818 25.7032L35.6146 24.7044C35.4057 24.342 35.1216 24.0206 34.7396 23.7948C34.3557 23.5679 33.9328 23.4729 33.5026 23.4729V25.4729ZM6.69675 25.4729H33.5026V23.4729H6.69675V25.4729ZM6.33902 25.6867C6.40382 25.5692 6.45636 25.53 6.48179 25.5148C6.50655 25.5001 6.56443 25.4729 6.69675 25.4729V23.4729C6.2673 23.4729 5.8428 23.5676 5.45845 23.7965C5.07477 24.025 4.79147 24.3512 4.58761 24.721L6.33902 25.6867ZM6.33818 25.6882L6.33821 25.6882L4.58842 24.7195L4.5884 24.7196L6.33818 25.6882ZM2.83561 32.0185C3.99384 29.9024 5.16453 27.798 6.33717 25.69L4.58941 24.7177C3.41732 26.8247 2.24328 28.9351 1.08121 31.0583L2.83561 32.0185ZM2.8044 31.9434C2.74306 31.9227 2.7263 31.9058 2.73338 31.9119C2.73718 31.9152 2.74614 31.9237 2.75683 31.9385C2.76766 31.9535 2.77834 31.9723 2.78687 31.9943C2.7954 32.0163 2.80026 32.0375 2.80239 32.0559C2.8045 32.0742 2.8036 32.0866 2.80297 32.0918C2.8018 32.1014 2.8027 32.0781 2.83374 32.0219L1.08308 31.0549C0.81568 31.5389 0.696374 32.1356 0.92234 32.7179C1.14825 33.3 1.63869 33.6602 2.16267 33.8377L2.8044 31.9434ZM3.37502 32.0002C3.06567 32.0002 2.90992 31.9815 2.82452 31.9505L2.14254 33.8306C2.59448 33.9946 3.07377 34.0002 3.37502 34.0002V32.0002ZM20.0935 31.5638C20.3469 31.5638 20.6007 31.5652 20.8576 31.5665L20.8682 29.5666C20.6122 29.5652 20.3531 29.5638 20.0935 29.5638V31.5638ZM19.3303 31.5665C19.5872 31.5652 19.8406 31.5638 20.0935 31.5638V29.5638C19.8345 29.5638 19.5758 29.5652 19.3198 29.5665L19.3303 31.5665ZM17.7576 31.5637C18.2913 31.572 18.8177 31.5692 19.3303 31.5665L19.3198 29.5665C18.8039 29.5693 18.2982 29.5719 17.7888 29.564L17.7576 31.5637ZM15.4422 29.3876C15.4531 30.0025 15.7034 30.5641 16.1503 30.9661C16.59 31.3617 17.1635 31.5545 17.7576 31.5637L17.7888 29.564C17.6014 29.561 17.5154 29.504 17.488 29.4793C17.4678 29.4611 17.4433 29.4319 17.4419 29.3524L15.4422 29.3876ZM17.7976 27.1397C17.1811 27.1397 16.5851 27.3345 16.1336 27.7473C15.6744 28.1673 15.4315 28.7543 15.4422 29.387L17.4419 29.353C17.4411 29.3041 17.4498 29.2759 17.4557 29.2617C17.4615 29.2479 17.4696 29.2358 17.4833 29.2233C17.5081 29.2006 17.596 29.1397 17.7976 29.1397V27.1397ZM22.434 27.1397C20.89 27.1275 19.3337 27.1275 17.7897 27.1397L17.8056 29.1396C19.339 29.1275 20.8847 29.1275 22.4182 29.1396L22.434 27.1397ZM24.7571 29.3159C24.7462 28.701 24.4959 28.1394 24.049 27.7373C23.6093 27.3417 23.0358 27.149 22.4417 27.1398L22.4105 29.1395C22.5979 29.1425 22.6839 29.1995 22.7113 29.2241C22.7315 29.2423 22.756 29.2716 22.7574 29.3511L24.7571 29.3159ZM22.4165 31.5637C23.029 31.5546 23.6187 31.3557 24.0657 30.947C24.5209 30.5307 24.768 29.9486 24.7571 29.3162L22.7574 29.3507C22.7581 29.3941 22.7504 29.4189 22.745 29.4315C22.7397 29.444 22.7315 29.4569 22.716 29.471C22.6867 29.4979 22.5925 29.5609 22.3868 29.5639L22.4165 31.5637ZM20.8576 31.5665C21.3688 31.5692 21.8923 31.572 22.4175 31.5637L22.3858 29.564C21.8852 29.5719 21.3829 29.5693 20.8682 29.5666L20.8576 31.5665Z" fill="#E60000" mask="url(#path-1-inside-1_7_365)"/>
</g>
</g>
<defs>
<filter id="filter0_b_7_365" x="-10.1963" y="-5.7998" width="60.6074" height="50.7998" filterUnits="userSpaceOnUse" color-interpolation-filters="sRGB">
<feFlood flood-opacity="0" result="BackgroundImageFix"/>
<feGaussianBlur in="BackgroundImageFix" stdDeviation="6"/>
<feComposite in2="SourceAlpha" operator="in" result="effect1_backgroundBlur_7_365"/>
<feBlend mode="normal" in="SourceGraphic" in2="effect1_backgroundBlur_7_365" result="shape"/>
</filter>
<clipPath id="clip0_7_365">
<rect width="36.6" height="26.8" fill="white" transform="translate(1.7998 6.2002)"/>
</clipPath>
</defs>
</svg>
