<svg width="14" height="30" viewBox="0 0 21 37" fill="none" xmlns="http://www.w3.org/2000/svg">
<g filter="url(#filter0_b_7_339)">
<path d="M0.400505 18.5997C0.400505 13.9564 0.389262 9.30179 0.400505 4.65844C0.400505 2.74714 1.3674 1.35301 3.06509 0.802102C3.46984 0.667186 3.90831 0.610971 4.33555 0.610971C8.25934 0.599728 12.1831 0.599728 16.0957 0.610971C18.378 0.622214 20.042 2.27493 20.042 4.54601C20.0532 13.9227 20.0532 23.288 20.042 32.6647C20.042 34.9358 18.378 36.5997 16.1069 36.5997C12.2281 36.611 8.34929 36.611 4.47046 36.5997C2.04198 36.5997 0.422991 35.0032 0.411748 32.5523C0.389262 27.8977 0.400505 23.2543 0.400505 18.5997ZM10.2269 3.87143C9.46234 3.87143 8.69782 3.87143 7.92205 3.87143C7.31493 3.88268 6.97764 4.16375 6.9664 4.65844C6.95516 5.16437 7.26996 5.51291 7.8546 5.51291C9.42861 5.53539 10.9914 5.53539 12.5654 5.51291C13.1276 5.50166 13.5098 5.1194 13.4873 4.65844C13.4648 4.18624 13.0938 3.87143 12.5204 3.87143C11.7559 3.87143 10.9914 3.87143 10.2269 3.87143ZM10.2269 30.0788C9.30494 30.0788 8.57415 30.8096 8.58539 31.709C8.59663 32.6085 9.34991 33.3393 10.2493 33.328C11.1263 33.3168 11.8346 32.5972 11.8346 31.709C11.8459 30.7759 11.1488 30.0788 10.2269 30.0788Z" fill="#E60000"/>
<path d="M7.92205 3.37135V3.37143H7.9266H7.93114H7.93569H7.94023H7.94478H7.94932H7.95387H7.95841H7.96295H7.9675H7.97204H7.97658H7.98112H7.98567H7.99021H7.99475H7.99929H8.00383H8.00837H8.01291H8.01745H8.02199H8.02653H8.03107H8.03561H8.04015H8.04469H8.04923H8.05377H8.05831H8.06284H8.06738H8.07192H8.07646H8.08099H8.08553H8.09007H8.0946H8.09914H8.10367H8.10821H8.11274H8.11728H8.12181H8.12635H8.13088H8.13542H8.13995H8.14448H8.14902H8.15355H8.15808H8.16262H8.16715H8.17168H8.17621H8.18075H8.18528H8.18981H8.19434H8.19887H8.2034H8.20793H8.21246H8.21699H8.22152H8.22605H8.23058H8.23511H8.23964H8.24417H8.24869H8.25322H8.25775H8.26228H8.26681H8.27133H8.27586H8.28039H8.28491H8.28944H8.29397H8.29849H8.30302H8.30754H8.31207H8.31659H8.32112H8.32564H8.33017H8.33469H8.33922H8.34374H8.34826H8.35279H8.35731H8.36183H8.36636H8.37088H8.3754H8.37992H8.38445H8.38897H8.39349H8.39801H8.40253H8.40705H8.41157H8.41609H8.42061H8.42513H8.42965H8.43417H8.43869H8.44321H8.44773H8.45225H8.45677H8.46129H8.46581H8.47032H8.47484H8.47936H8.48388H8.48839H8.49291H8.49743H8.50195H8.50646H8.51098H8.5155H8.52001H8.52453H8.52904H8.53356H8.53807H8.54259H8.5471H8.55162H8.55613H8.56065H8.56516H8.56967H8.57419H8.5787H8.58322H8.58773H8.59224H8.59675H8.60127H8.60578H8.61029H8.6148H8.61932H8.62383H8.62834H8.63285H8.63736H8.64187H8.64638H8.65089H8.65541H8.65991H8.66442H8.66893H8.67344H8.67795H8.68246H8.68697H8.69148H8.69599H8.7005H8.70501H8.70952H8.71403H8.71853H8.72304H8.72755H8.73206H8.73656H8.74107H8.74558H8.75009H8.75459H8.7591H8.76361H8.76811H8.77262H8.77712H8.78163H8.78613H8.79064H8.79515H8.79965H8.80416H8.80866H8.81316H8.81767H8.82217H8.82668H8.83118H8.83569H8.84019H8.84469H8.8492H8.8537H8.8582H8.86271H8.86721H8.87171H8.87621H8.88072H8.88522H8.88972H8.89422H8.89872H8.90322H8.90773H8.91223H8.91673H8.92123H8.92573H8.93023H8.93473H8.93923H8.94373H8.94823H8.95273H8.95723H8.96173H8.96623H8.97073H8.97523H8.97973H8.98423H8.98873H8.99323H8.99772H9.00222H9.00672H9.01122H9.01572H9.02022H9.02471H9.02921H9.03371H9.03821H9.0427H9.0472H9.0517H9.05619H9.06069H9.06519H9.06968H9.07418H9.07868H9.08317H9.08767H9.09216H9.09666H9.10115H9.10565H9.11014H9.11464H9.11913H9.12363H9.12813H9.13262H9.13711H9.14161H9.1461H9.1506H9.15509H9.15958H9.16408H9.16857H9.17307H9.17756H9.18205H9.18655H9.19104H9.19553H9.20002H9.20452H9.20901H9.2135H9.21799H9.22249H9.22698H9.23147H9.23596H9.24046H9.24495H9.24944H9.25393H9.25842H9.26291H9.2674H9.2719H9.27639H9.28088H9.28537H9.28986H9.29435H9.29884H9.30333H9.30782H9.31231H9.3168H9.32129H9.32578H9.33027H9.33476H9.33925H9.34374H9.34823H9.35272H9.35721H9.3617H9.36618H9.37067H9.37516H9.37965H9.38414H9.38863H9.39312H9.3976H9.40209H9.40658H9.41107H9.41556H9.42004H9.42453H9.42902H9.43351H9.43799H9.44248H9.44697H9.45146H9.45594H9.46043H9.46492H9.4694H9.47389H9.47838H9.48286H9.48735H9.49184H9.49632H9.50081H9.5053H9.50978H9.51427H9.51875H9.52324H9.52773H9.53221H9.5367H9.54118H9.54567H9.55015H9.55464H9.55912H9.56361H9.56809H9.57258H9.57706H9.58155H9.58603H9.59052H9.595H9.59949H9.60397H9.60846H9.61294H9.61742H9.62191H9.62639H9.63088H9.63536H9.63984H9.64433H9.64881H9.6533H9.65778H9.66226H9.66675H9.67123H9.67571H9.6802H9.68468H9.68917H9.69365H9.69813H9.70261H9.7071H9.71158H9.71606H9.72055H9.72503H9.72951H9.73399H9.73848H9.74296H9.74744H9.75192H9.75641H9.76089H9.76537H9.76985H9.77434H9.77882H9.7833H9.78778H9.79226H9.79675H9.80123H9.80571H9.81019H9.81467H9.81916H9.82364H9.82812H9.8326H9.83708H9.84156H9.84604H9.85053H9.85501H9.85949H9.86397H9.86845H9.87293H9.87741H9.8819H9.88638H9.89086H9.89534H9.89982H9.9043H9.90878H9.91326H9.91774H9.92222H9.9267H9.93118H9.93567H9.94015H9.94463H9.94911H9.95359H9.95807H9.96255H9.96703H9.97151H9.97599H9.98047H9.98495H9.98943H9.99391H9.99839H10.0029H10.0074H10.0118H10.0163H10.0208H10.0253H10.0298H10.0342H10.0387H10.0432H10.0477H10.0522H10.0566H10.0611H10.0656H10.0701H10.0746H10.079H10.0835H10.088H10.0925H10.097H10.1014H10.1059H10.1104H10.1149H10.1194H10.1238H10.1283H10.1328H10.1373H10.1418H10.1462H10.1507H10.1552H10.1597H10.1641H10.1686H10.1731H10.1776H10.1821H10.1865H10.191H10.1955H10.2H10.2045H10.2089H10.2134H10.2179H10.2224H10.2269H10.2313H10.2358H10.2403H10.2448H10.2493H10.2537H10.2582H10.2627H10.2672H10.2717H10.2761H10.2806H10.2851H10.2896H10.2941H10.2985H10.303H10.3075H10.312H10.3165H10.3209H10.3254H10.3299H10.3344H10.3389H10.3433H10.3478H10.3523H10.3568H10.3613H10.3657H10.3702H10.3747H10.3792H10.3837H10.3881H10.3926H10.3971H10.4016H10.406H10.4105H10.415H10.4195H10.424H10.4284H10.4329H10.4374H10.4419H10.4464H10.4508H10.4553H10.4598H10.4643H10.4688H10.4732H10.4777H10.4822H10.4867H10.4912H10.4956H10.5001H10.5046H10.5091H10.5136H10.518H10.5225H10.527H10.5315H10.536H10.5404H10.5449H10.5494H10.5539H10.5584H10.5628H10.5673H10.5718H10.5763H10.5808H10.5852H10.5897H10.5942H10.5987H10.6032H10.6076H10.6121H10.6166H10.6211H10.6256H10.63H10.6345H10.639H10.6435H10.6479H10.6524H10.6569H10.6614H10.6659H10.6703H10.6748H10.6793H10.6838H10.6883H10.6927H10.6972H10.7017H10.7062H10.7107H10.7151H10.7196H10.7241H10.7286H10.7331H10.7375H10.742H10.7465H10.751H10.7555H10.7599H10.7644H10.7689H10.7734H10.7779H10.7823H10.7868H10.7913H10.7958H10.8003H10.8047H10.8092H10.8137H10.8182H10.8227H10.8271H10.8316H10.8361H10.8406H10.8451H10.8495H10.854H10.8585H10.863H10.8674H10.8719H10.8764H10.8809H10.8854H10.8898H10.8943H10.8988H10.9033H10.9078H10.9122H10.9167H10.9212H10.9257H10.9302H10.9346H10.9391H10.9436H10.9481H10.9526H10.957H10.9615H10.966H10.9705H10.975H10.9794H10.9839H10.9884H10.9929H10.9974H11.0018H11.0063H11.0108H11.0153H11.0198H11.0242H11.0287H11.0332H11.0377H11.0422H11.0466H11.0511H11.0556H11.0601H11.0646H11.069H11.0735H11.078H11.0825H11.087H11.0914H11.0959H11.1004H11.1049H11.1094H11.1138H11.1183H11.1228H11.1273H11.1317H11.1362H11.1407H11.1452H11.1497H11.1541H11.1586H11.1631H11.1676H11.1721H11.1765H11.181H11.1855H11.19H11.1945H11.1989H11.2034H11.2079H11.2124H11.2169H11.2213H11.2258H11.2303H11.2348H11.2393H11.2437H11.2482H11.2527H11.2572H11.2617H11.2661H11.2706H11.2751H11.2796H11.2841H11.2885H11.293H11.2975H11.302H11.3065H11.3109H11.3154H11.3199H11.3244H11.3289H11.3333H11.3378H11.3423H11.3468H11.3512H11.3557H11.3602H11.3647H11.3692H11.3736H11.3781H11.3826H11.3871H11.3916H11.396H11.4005H11.405H11.4095H11.414H11.4184H11.4229H11.4274H11.4319H11.4364H11.4408H11.4453H11.4498H11.4543H11.4588H11.4632H11.4677H11.4722H11.4767H11.4812H11.4856H11.4901H11.4946H11.4991H11.5036H11.508H11.5125H11.517H11.5215H11.526H11.5304H11.5349H11.5394H11.5439H11.5484H11.5528H11.5573H11.5618H11.5663H11.5708H11.5752H11.5797H11.5842H11.5887H11.5931H11.5976H11.6021H11.6066H11.6111H11.6155H11.62H11.6245H11.629H11.6335H11.6379H11.6424H11.6469H11.6514H11.6559H11.6603H11.6648H11.6693H11.6738H11.6783H11.6827H11.6872H11.6917H11.6962H11.7007H11.7051H11.7096H11.7141H11.7186H11.7231H11.7275H11.732H11.7365H11.741H11.7455H11.7499H11.7544H11.7589H11.7634H11.7679H11.7723H11.7768H11.7813H11.7858H11.7903H11.7947H11.7992H11.8037H11.8082H11.8127H11.8171H11.8216H11.8261H11.8306H11.835H11.8395H11.844H11.8485H11.853H11.8574H11.8619H11.8664H11.8709H11.8754H11.8798H11.8843H11.8888H11.8933H11.8978H11.9022H11.9067H11.9112H11.9157H11.9202H11.9246H11.9291H11.9336H11.9381H11.9426H11.947H11.9515H11.956H11.9605H11.965H11.9694H11.9739H11.9784H11.9829H11.9874H11.9918H11.9963H12.0008H12.0053H12.0098H12.0142H12.0187H12.0232H12.0277H12.0322H12.0366H12.0411H12.0456H12.0501H12.0546H12.059H12.0635H12.068H12.0725H12.0769H12.0814H12.0859H12.0904H12.0949H12.0993H12.1038H12.1083H12.1128H12.1173H12.1217H12.1262H12.1307H12.1352H12.1397H12.1441H12.1486H12.1531H12.1576H12.1621H12.1665H12.171H12.1755H12.18H12.1845H12.1889H12.1934H12.1979H12.2024H12.2069H12.2113H12.2158H12.2203H12.2248H12.2293H12.2337H12.2382H12.2427H12.2472H12.2517H12.2561H12.2606H12.2651H12.2696H12.2741H12.2785H12.283H12.2875H12.292H12.2965H12.3009H12.3054H12.3099H12.3144H12.3188H12.3233H12.3278H12.3323H12.3368H12.3412H12.3457H12.3502H12.3547H12.3592H12.3636H12.3681H12.3726H12.3771H12.3816H12.386H12.3905H12.395H12.3995H12.404H12.4084H12.4129H12.4174H12.4219H12.4264H12.4308H12.4353H12.4398H12.4443H12.4488H12.4532H12.4577H12.4622H12.4667H12.4712H12.4756H12.4801H12.4846H12.4891H12.4936H12.498H12.5025H12.507H12.5115H12.516H12.5204C12.8963 3.37143 13.2529 3.47507 13.5283 3.7019C13.81 3.93386 13.9692 4.26491 13.9868 4.63466M7.92205 3.37135L13.4873 4.65844M7.92205 3.37135L7.9128 3.37152C7.54138 3.3784 7.18052 3.46836 6.90233 3.69816C6.61057 3.93919 6.47487 4.28003 6.46653 4.64708L6.46653 4.64733C6.45852 5.00744 6.5677 5.36316 6.83349 5.62895C7.09793 5.89339 7.46056 6.01213 7.85076 6.0129M7.92205 3.37135L6.9664 4.65844M13.9868 4.63466L13.4873 4.65844M13.9868 4.63466C13.9868 4.63447 13.9867 4.63427 13.9867 4.63408L13.4873 4.65844M13.9868 4.63466C14.0254 5.4332 13.3591 5.99713 12.5754 6.01281L12.5725 6.01286C10.9949 6.03539 9.42842 6.03541 7.85076 6.0129M13.4873 4.65844C13.5098 5.1194 13.1276 5.50166 12.5654 5.51291C10.9914 5.53539 9.42861 5.53539 7.8546 5.51291M7.85076 6.0129C7.85204 6.01291 7.85332 6.01291 7.8546 6.01291V5.51291M7.85076 6.0129C7.84966 6.01289 7.84856 6.01287 7.84745 6.01286L7.8546 5.51291M7.8546 5.51291C7.26996 5.51291 6.95516 5.16437 6.9664 4.65844M6.9664 4.65844C6.97764 4.16375 7.31493 3.88268 7.92205 3.87143L6.9664 4.65844ZM0.900505 4.65965V4.65844C0.900505 2.94422 1.74589 1.75585 3.21942 1.27769L3.21942 1.2777L3.2232 1.27644C3.56657 1.16199 3.94987 1.11097 4.33555 1.11097L4.33698 1.11097C8.25965 1.09973 12.1823 1.09973 16.0937 1.11097C18.1048 1.12111 19.542 2.55447 19.542 4.54601V4.54661C19.5532 13.9229 19.5532 23.2878 19.542 32.6641V32.6647C19.542 34.6596 18.1019 36.0997 16.1069 36.0997L16.1055 36.0997C12.2276 36.111 8.34977 36.111 4.47191 36.0997H4.47046C3.36801 36.0997 2.48969 35.7395 1.88714 35.1405C1.28475 34.5417 0.91685 33.6634 0.911742 32.55L0.911742 32.5498C0.894886 29.0607 0.896991 25.5784 0.899098 22.0913C0.899801 20.9281 0.900505 19.7644 0.900505 18.5997C0.900505 17.0515 0.899256 15.5024 0.898007 13.9532C0.895508 10.8544 0.893009 7.75486 0.900505 4.65965ZM10.2556 33.828L10.2558 33.828C11.4084 33.8132 12.333 32.8694 12.3346 31.7121C12.3477 30.5008 11.4252 29.5788 10.2269 29.5788C9.03457 29.5788 8.0706 30.5291 8.08543 31.7153C8.10014 32.8924 9.0816 33.8427 10.2556 33.828Z" stroke="#E60000"/>
</g>
<defs>
<filter id="filter0_b_7_339" x="-11.6045" y="-11.3975" width="43.6553" height="60.0059" filterUnits="userSpaceOnUse" color-interpolation-filters="sRGB">
<feFlood flood-opacity="0" result="BackgroundImageFix"/>
<feGaussianBlur in="BackgroundImageFix" stdDeviation="6"/>
<feComposite in2="SourceAlpha" operator="in" result="effect1_backgroundBlur_7_339"/>
<feBlend mode="normal" in="SourceGraphic" in2="effect1_backgroundBlur_7_339" result="shape"/>
</filter>
</defs>
</svg>
