<svg width="30" height="30" viewBox="0 0 41 40" fill="none" xmlns="http://www.w3.org/2000/svg">
<g clip-path="url(#clip0_7_353)">
<g filter="url(#filter0_b_7_353)">
<mask id="path-1-inside-1_7_353" fill="white">
<path fill-rule="evenodd" clip-rule="evenodd" d="M3.46732 23.3455V23.8255C15.0416 23.8255 26.5377 23.8255 38.0785 23.8144V23.3343V8.31817C38.0785 7.26871 37.6097 6.7998 36.5382 6.7998H5.00758C3.92493 6.7998 3.46732 7.26871 3.46732 8.32933V23.3455ZM19.7242 18.2973C19.2576 18.5672 18.7878 18.839 18.3118 19.1142V12.5495C19.5198 13.2531 20.7097 13.9387 21.9131 14.6321C22.6 15.0278 23.2913 15.4261 23.9929 15.8318C22.5464 16.6647 21.1505 17.4722 19.7242 18.2973ZM32.6776 29.8186C32.5673 29.548 32.4544 29.271 32.3415 28.9835H32.3422C33.8487 28.9835 35.266 28.9835 36.6609 28.9723C37.4199 28.9612 38.0002 28.5369 38.0337 27.8559C38.0723 27.2077 38.0629 26.5541 38.0534 25.8952C38.0491 25.6009 38.0449 25.3055 38.0449 25.009H3.45605V27.3758C3.45605 28.5034 3.92483 28.9723 5.04096 28.9723H9.1818C8.83589 29.8429 8.51229 30.6466 8.1887 31.4502L8.18844 31.4508C8.05451 31.8081 7.9987 32.1653 8.44515 32.3328C8.88044 32.5003 9.09251 32.21 9.2376 31.8527C9.33568 31.6108 9.43567 31.3697 9.53562 31.1288C9.77689 30.5472 10.0179 29.9663 10.231 29.3742C10.3537 29.0505 10.5212 28.9723 10.8448 28.9723C17.4635 28.9835 24.0821 28.9835 30.7008 28.9723C31.0468 28.9723 31.1919 29.084 31.3035 29.3966C31.5567 30.0687 31.8269 30.7239 32.0992 31.3843C32.139 31.4808 32.1789 31.5774 32.2187 31.6741C32.2466 31.7355 32.2717 31.7941 32.2968 31.8527C32.3219 31.9114 32.3471 31.97 32.375 32.0314C32.5201 32.3551 32.8214 32.5114 33.0893 32.3217C33.2679 32.1988 33.4241 31.8081 33.3571 31.6071C33.1637 31.011 32.9272 30.431 32.6776 29.8186ZM24.9862 27.2083H20.7449C20.2765 27.2083 19.8069 27.2071 19.3369 27.2059C18.3957 27.2034 17.4527 27.2009 16.5148 27.2083C16.1353 27.2083 15.767 27.1637 15.7558 26.6836C15.7446 26.1924 16.113 26.0919 16.5259 26.0919H24.9973C25.3991 26.0919 25.7786 26.1812 25.7786 26.6725C25.7786 27.186 25.3768 27.2083 24.9862 27.2083Z"/>
</mask>
<path fill-rule="evenodd" clip-rule="evenodd" d="M3.46732 23.3455V23.8255C15.0416 23.8255 26.5377 23.8255 38.0785 23.8144V23.3343V8.31817C38.0785 7.26871 37.6097 6.7998 36.5382 6.7998H5.00758C3.92493 6.7998 3.46732 7.26871 3.46732 8.32933V23.3455ZM19.7242 18.2973C19.2576 18.5672 18.7878 18.839 18.3118 19.1142V12.5495C19.5198 13.2531 20.7097 13.9387 21.9131 14.6321C22.6 15.0278 23.2913 15.4261 23.9929 15.8318C22.5464 16.6647 21.1505 17.4722 19.7242 18.2973ZM32.6776 29.8186C32.5673 29.548 32.4544 29.271 32.3415 28.9835H32.3422C33.8487 28.9835 35.266 28.9835 36.6609 28.9723C37.4199 28.9612 38.0002 28.5369 38.0337 27.8559C38.0723 27.2077 38.0629 26.5541 38.0534 25.8952C38.0491 25.6009 38.0449 25.3055 38.0449 25.009H3.45605V27.3758C3.45605 28.5034 3.92483 28.9723 5.04096 28.9723H9.1818C8.83589 29.8429 8.51229 30.6466 8.1887 31.4502L8.18844 31.4508C8.05451 31.8081 7.9987 32.1653 8.44515 32.3328C8.88044 32.5003 9.09251 32.21 9.2376 31.8527C9.33568 31.6108 9.43567 31.3697 9.53562 31.1288C9.77689 30.5472 10.0179 29.9663 10.231 29.3742C10.3537 29.0505 10.5212 28.9723 10.8448 28.9723C17.4635 28.9835 24.0821 28.9835 30.7008 28.9723C31.0468 28.9723 31.1919 29.084 31.3035 29.3966C31.5567 30.0687 31.8269 30.7239 32.0992 31.3843C32.139 31.4808 32.1789 31.5774 32.2187 31.6741C32.2466 31.7355 32.2717 31.7941 32.2968 31.8527C32.3219 31.9114 32.3471 31.97 32.375 32.0314C32.5201 32.3551 32.8214 32.5114 33.0893 32.3217C33.2679 32.1988 33.4241 31.8081 33.3571 31.6071C33.1637 31.011 32.9272 30.431 32.6776 29.8186ZM24.9862 27.2083H20.7449C20.2765 27.2083 19.8069 27.2071 19.3369 27.2059C18.3957 27.2034 17.4527 27.2009 16.5148 27.2083C16.1353 27.2083 15.767 27.1637 15.7558 26.6836C15.7446 26.1924 16.113 26.0919 16.5259 26.0919H24.9973C25.3991 26.0919 25.7786 26.1812 25.7786 26.6725C25.7786 27.186 25.3768 27.2083 24.9862 27.2083Z" fill="#E60000"/>
<path d="M3.46732 23.8255H2.46732V24.8255H3.46732V23.8255ZM38.0785 23.8144L38.0794 24.8144L39.0785 24.8134V23.8144H38.0785ZM18.3118 19.1142H17.3118V20.8475L18.8124 19.9799L18.3118 19.1142ZM19.7242 18.2973L19.2234 17.4317L19.7242 18.2973ZM18.3118 12.5495L18.8152 11.6854L17.3118 10.8097V12.5495H18.3118ZM21.9131 14.6321L22.4123 13.7656V13.7656L21.9131 14.6321ZM23.9929 15.8318L24.4919 16.6984L25.9939 15.8337L24.4935 14.9661L23.9929 15.8318ZM32.3415 28.9835V27.9835H30.8744L31.4107 29.3491L32.3415 28.9835ZM32.6776 29.8186L33.6037 29.4412L33.6036 29.4412L32.6776 29.8186ZM36.6609 28.9723L36.6689 29.9723L36.6756 29.9722L36.6609 28.9723ZM38.0337 27.8559L37.0354 27.7965L37.0349 27.8068L38.0337 27.8559ZM38.0534 25.8952L39.0533 25.8808V25.8808L38.0534 25.8952ZM38.0449 25.009H39.0449V24.009H38.0449V25.009ZM3.45605 25.009V24.009H2.45605V25.009H3.45605ZM9.1818 28.9723L10.1111 29.3416L10.6552 27.9723H9.1818V28.9723ZM8.1887 31.4502L7.26108 31.0767L7.26108 31.0767L8.1887 31.4502ZM8.18844 31.4508L7.26082 31.0773L7.25631 31.0885L7.25208 31.0998L8.18844 31.4508ZM8.44515 32.3328L8.80423 31.3995L8.79636 31.3965L8.44515 32.3328ZM9.2376 31.8527L10.1641 32.229L10.1644 32.2284L9.2376 31.8527ZM9.53562 31.1288L10.4593 31.512L10.4593 31.512L9.53562 31.1288ZM10.231 29.3742L9.29593 29.0197L9.29292 29.0276L9.29004 29.0356L10.231 29.3742ZM10.8448 28.9723L10.8465 27.9723H10.8448V28.9723ZM30.7008 28.9723V27.9723L30.6991 27.9723L30.7008 28.9723ZM31.3035 29.3966L30.3617 29.7328L30.3646 29.741L30.3677 29.7491L31.3035 29.3966ZM32.0992 31.3843L33.0237 31.003L33.0237 31.003L32.0992 31.3843ZM32.2187 31.6741L31.294 32.0548L31.3008 32.0714L31.3083 32.0878L32.2187 31.6741ZM32.375 32.0314L33.2875 31.6224L33.2854 31.6177L32.375 32.0314ZM33.0893 32.3217L32.5226 31.4976L32.5112 31.5057L33.0893 32.3217ZM33.3571 31.6071L32.406 31.9159L32.4084 31.9233L33.3571 31.6071ZM19.3369 27.2059L19.3396 26.2059H19.3396L19.3369 27.2059ZM16.5148 27.2083V28.2084L16.5227 28.2083L16.5148 27.2083ZM15.7558 26.6836L14.7561 26.7063L14.7561 26.7069L15.7558 26.6836ZM4.46732 23.8255V23.3455H2.46732V23.8255H4.46732ZM38.0775 22.8144C26.5373 22.8255 15.0417 22.8255 3.46732 22.8255V24.8255C15.0415 24.8255 26.5381 24.8255 38.0794 24.8144L38.0775 22.8144ZM37.0785 23.3343V23.8144H39.0785V23.3343H37.0785ZM37.0785 8.31817V23.3343H39.0785V8.31817H37.0785ZM36.5382 7.7998C36.9531 7.7998 37.0244 7.89371 37.0069 7.87639C36.9869 7.85662 37.0785 7.91916 37.0785 8.31817H39.0785C39.0785 7.66772 38.9356 6.97108 38.4134 6.45449C37.8936 5.94035 37.1948 5.7998 36.5382 5.7998V7.7998ZM5.00758 7.7998H36.5382V5.7998H5.00758V7.7998ZM4.46732 8.32933C4.46732 7.91644 4.55991 7.85259 4.53866 7.87384C4.51753 7.89498 4.58421 7.7998 5.00758 7.7998V5.7998C4.3483 5.7998 3.64485 5.93908 3.12425 6.45983C2.60353 6.98069 2.46732 7.6816 2.46732 8.32933H4.46732ZM4.46732 23.3455V8.32933H2.46732V23.3455H4.46732ZM18.8124 19.9799C19.2884 19.7046 19.7583 19.4328 20.2249 19.1629L19.2234 17.4317C18.7568 17.7016 18.2871 17.9733 17.8113 18.2484L18.8124 19.9799ZM17.3118 12.5495V19.1142H19.3118V12.5495H17.3118ZM22.4123 13.7656C21.2086 13.072 20.0207 12.3877 18.8152 11.6854L17.8085 13.4136C19.0188 14.1186 20.2107 14.8053 21.4139 15.4985L22.4123 13.7656ZM24.4935 14.9661C23.7911 14.56 23.0991 14.1613 22.4123 13.7656L21.4139 15.4985C22.1009 15.8944 22.7915 16.2923 23.4924 16.6975L24.4935 14.9661ZM20.2249 19.1629C21.6514 18.3377 23.0464 17.5307 24.4919 16.6984L23.494 14.9652C22.0464 15.7986 20.6496 16.6066 19.2234 17.4317L20.2249 19.1629ZM31.4107 29.3491C31.5263 29.6434 31.6416 29.9262 31.7516 30.1961L33.6036 29.4412C33.493 29.1697 33.3825 28.8985 33.2723 28.6179L31.4107 29.3491ZM32.3422 27.9835H32.3415V29.9835H32.3422V27.9835ZM36.6529 27.9724C35.2627 27.9835 33.8495 27.9835 32.3422 27.9835V29.9835C33.848 29.9835 35.2693 29.9835 36.6689 29.9723L36.6529 27.9724ZM37.0349 27.8068C37.0334 27.8378 37.0271 27.85 37.0257 27.8526C37.0239 27.856 37.0184 27.8657 37.0001 27.8802C36.9602 27.9116 36.8504 27.9694 36.6462 27.9724L36.6756 29.9722C37.7691 29.9561 38.9646 29.286 39.0325 27.905L37.0349 27.8068ZM37.0535 25.9097C37.0631 26.575 37.0715 27.1914 37.0355 27.7965L39.032 27.9153C39.0731 27.224 39.0627 26.5333 39.0533 25.8808L37.0535 25.9097ZM37.0449 25.009C37.0449 25.3139 37.0493 25.6165 37.0535 25.9097L39.0533 25.8808C39.049 25.5853 39.0449 25.2971 39.0449 25.009H37.0449ZM3.45605 26.009H38.0449V24.009H3.45605V26.009ZM4.45605 27.3758V25.009H2.45605V27.3758H4.45605ZM5.04096 27.9723C4.82664 27.9723 4.69322 27.9492 4.6155 27.9253C4.57864 27.914 4.55818 27.9038 4.54879 27.8983C4.54404 27.8956 4.54144 27.8937 4.54037 27.8929C4.53979 27.8925 4.53946 27.8922 4.53931 27.8921C4.53917 27.8919 4.5391 27.8919 4.53908 27.8918C4.53905 27.8918 4.53897 27.8917 4.5388 27.8915C4.53863 27.8913 4.53829 27.8909 4.53778 27.8903C4.53682 27.889 4.53476 27.8861 4.53182 27.881C4.52599 27.8707 4.51534 27.8492 4.50375 27.8109C4.47935 27.7304 4.45605 27.5937 4.45605 27.3758H2.45605C2.45605 28.0478 2.59094 28.7691 3.12084 29.302C3.65212 29.8363 4.37234 29.9723 5.04096 29.9723V27.9723ZM9.1818 27.9723H5.04096V29.9723H9.1818V27.9723ZM9.11632 31.8237C9.43982 31.0203 9.76425 30.2146 10.1111 29.3416L8.25246 28.6031C7.90753 29.4712 7.58476 30.2728 7.26108 31.0767L9.11632 31.8237ZM9.11607 31.8243L9.11633 31.8237L7.26108 31.0767L7.26082 31.0773L9.11607 31.8243ZM8.79636 31.3965C8.79939 31.3977 8.86965 31.4248 8.94651 31.5116C9.02914 31.6049 9.07173 31.7133 9.08626 31.803C9.09873 31.8799 9.08767 31.9229 9.09024 31.91C9.09254 31.8983 9.1009 31.8656 9.1248 31.8019L7.25208 31.0998C7.17908 31.2945 7.04167 31.689 7.11204 32.123C7.15169 32.3676 7.25566 32.619 7.44921 32.8376C7.63698 33.0496 7.86768 33.1842 8.09394 33.2691L8.79636 31.3965ZM8.3111 31.4765C8.28746 31.5347 8.27225 31.5617 8.26738 31.5695C8.26199 31.578 8.28288 31.5411 8.34166 31.496C8.40921 31.4442 8.50685 31.3976 8.62197 31.3848C8.73024 31.3728 8.79767 31.397 8.80422 31.3995L8.08609 33.2661C8.58014 33.4562 9.1181 33.421 9.55874 33.0831C9.90744 32.8157 10.0788 32.4392 10.1641 32.229L8.3111 31.4765ZM8.61195 30.7456C8.51226 30.9859 8.4107 31.2307 8.31083 31.4771L10.1644 32.2284C10.2607 31.9908 10.3591 31.7535 10.4593 31.512L8.61195 30.7456ZM9.29004 29.0356C9.08639 29.6015 8.85474 30.1603 8.61195 30.7456L10.4593 31.512C10.699 30.9341 10.9494 30.3312 11.1719 29.7129L9.29004 29.0356ZM10.8448 27.9723C10.6277 27.9723 10.2766 27.9924 9.93903 28.1999C9.57995 28.4205 9.39863 28.7488 9.29593 29.0197L11.166 29.7288C11.1861 29.6759 11.1498 29.8033 10.9861 29.9039C10.8438 29.9913 10.7383 29.9723 10.8448 29.9723V27.9723ZM30.6991 27.9723C24.0816 27.9835 17.464 27.9835 10.8465 27.9723L10.8431 29.9723C17.4629 29.9835 24.0827 29.9835 30.7024 29.9723L30.6991 27.9723ZM32.2452 29.0603C32.1623 28.8281 32.0092 28.4957 31.6725 28.2544C31.3334 28.0114 30.9647 27.9723 30.7008 27.9723V29.9723C30.7829 29.9723 30.6597 29.9891 30.5075 29.8801C30.3578 29.7728 30.333 29.6524 30.3617 29.7328L32.2452 29.0603ZM33.0237 31.003C32.7504 30.3404 32.4861 29.6994 32.2393 29.0441L30.3677 29.7491C30.6272 30.4381 30.9034 31.1074 31.1748 31.7656L33.0237 31.003ZM33.1434 31.2935C33.1034 31.1963 33.0635 31.0994 33.0237 31.003L31.1748 31.7656C31.2146 31.8621 31.2543 31.9584 31.294 32.0548L33.1434 31.2935ZM33.216 31.4589C33.1914 31.4016 33.1622 31.3332 33.1291 31.2604L31.3083 32.0878C31.331 32.1378 31.352 32.1867 31.3776 32.2466L33.216 31.4589ZM33.2854 31.6177C33.2626 31.5677 33.2417 31.5188 33.216 31.4589L31.3776 32.2466C31.4022 32.3039 31.4315 32.3723 31.4645 32.4451L33.2854 31.6177ZM32.5112 31.5057C32.5722 31.4624 32.6651 31.4192 32.7833 31.4071C32.9007 31.3951 33.0065 31.4176 33.0886 31.4537C33.2419 31.5211 33.2854 31.6177 33.2875 31.6224L31.4624 32.4403C31.6096 32.7688 31.8763 33.1054 32.2836 33.2845C32.7334 33.4823 33.2479 33.4349 33.6674 33.1376L32.5112 31.5057ZM32.4084 31.9233C32.3621 31.7842 32.3737 31.6847 32.3758 31.6671C32.3792 31.6389 32.3838 31.6298 32.3817 31.6354C32.3798 31.6403 32.3799 31.6376 32.3885 31.6249C32.3921 31.6195 32.431 31.5607 32.5226 31.4977L33.6559 33.1456C33.9842 32.9199 34.1631 32.5757 34.2489 32.352C34.329 32.1432 34.4501 31.7239 34.3059 31.291L32.4084 31.9233ZM31.7516 30.1961C32.0037 30.8146 32.2257 31.3605 32.406 31.9159L34.3083 31.2984C34.1016 30.6615 33.8507 30.0474 33.6037 29.4412L31.7516 30.1961ZM20.7449 28.2083H24.9862V26.2083H20.7449V28.2083ZM19.3343 28.2059C19.8041 28.2071 20.275 28.2083 20.7449 28.2083V26.2083C20.2781 26.2083 19.8098 26.2071 19.3396 26.2059L19.3343 28.2059ZM16.5227 28.2083C17.4545 28.2009 18.3921 28.2034 19.3343 28.2059L19.3396 26.2059C18.3992 26.2034 17.451 26.2009 16.5068 26.2084L16.5227 28.2083ZM14.7561 26.7069C14.7618 26.9531 14.8154 27.222 14.963 27.4739C15.115 27.7331 15.3281 27.9084 15.5463 28.0186C15.9248 28.2098 16.3377 28.2083 16.5148 28.2083V26.2083C16.434 26.2083 16.3917 26.2055 16.3692 26.2026C16.3452 26.1994 16.3832 26.2007 16.448 26.2334C16.5253 26.2725 16.6205 26.3466 16.6884 26.4624C16.752 26.5708 16.7554 26.6542 16.7555 26.6604L14.7561 26.7069ZM16.5259 25.0919C16.2811 25.0919 15.8506 25.113 15.4623 25.3491C14.9693 25.6488 14.7436 26.16 14.7561 26.7063L16.7555 26.6609C16.7556 26.663 16.7565 26.734 16.707 26.8326C16.6541 26.938 16.5743 27.0137 16.5013 27.058C16.4384 27.0963 16.398 27.1011 16.4117 27.0986C16.424 27.0963 16.4591 27.0919 16.5259 27.0919V25.0919ZM24.9973 25.0919H16.5259V27.0919H24.9973V25.0919ZM26.7786 26.6725C26.7786 26.4209 26.7296 26.1521 26.5928 25.8991C26.4531 25.6406 26.2525 25.4554 26.0385 25.3318C25.6527 25.1092 25.2304 25.0919 24.9973 25.0919V27.0919C25.0648 27.0919 25.1018 27.096 25.1172 27.0987C25.1341 27.1016 25.0981 27.0983 25.0388 27.0641C24.9699 27.0243 24.8893 26.9536 24.8333 26.8499C24.7803 26.7518 24.7786 26.6784 24.7786 26.6725H26.7786ZM24.9862 28.2083C25.1412 28.2083 25.5685 28.2184 25.9523 28.0389C26.1795 27.9328 26.4093 27.7556 26.5714 27.4804C26.7283 27.214 26.7786 26.929 26.7786 26.6725H24.7786C24.7786 26.6722 24.7786 26.6503 24.7874 26.6131C24.7964 26.5747 24.8144 26.5226 24.8481 26.4653C24.9227 26.3388 25.0276 26.2634 25.1055 26.2271C25.1686 26.1975 25.2019 26.1989 25.1662 26.2028C25.1322 26.2065 25.0811 26.2083 24.9862 26.2083V28.2083Z" fill="#E60000" mask="url(#path-1-inside-1_7_353)"/>
</g>
</g>
<defs>
<filter id="filter0_b_7_353" x="-8.54395" y="-5.2002" width="58.6221" height="49.6045" filterUnits="userSpaceOnUse" color-interpolation-filters="sRGB">
<feFlood flood-opacity="0" result="BackgroundImageFix"/>
<feGaussianBlur in="BackgroundImageFix" stdDeviation="6"/>
<feComposite in2="SourceAlpha" operator="in" result="effect1_backgroundBlur_7_353"/>
<feBlend mode="normal" in="SourceGraphic" in2="effect1_backgroundBlur_7_353" result="shape"/>
</filter>
<clipPath id="clip0_7_353">
<rect width="34.6" height="25.6" fill="white" transform="translate(3.4668 6.7998)"/>
</clipPath>
</defs>
</svg>
