<svg width="30" height="30" viewBox="0 0 41 40" fill="none" xmlns="http://www.w3.org/2000/svg">
<g clip-path="url(#clip0_7_385)">
<g filter="url(#filter0_b_7_385)">
<mask id="path-1-inside-1_7_385" fill="white">
<path fill-rule="evenodd" clip-rule="evenodd" d="M19.9791 12.5942C20.2707 12.593 20.5619 12.5918 20.8519 12.5918C21.152 12.5918 21.4533 12.593 21.7554 12.5942C22.3619 12.5965 22.9715 12.5988 23.5811 12.5918C24.5258 12.5709 25.0611 12.0358 25.0716 11.0811C25.0821 10.2418 25.0821 9.4025 25.0716 8.5632C25.0716 7.56653 24.5153 7 23.5181 7H18.2172C17.2305 7.01049 16.6847 7.56653 16.6742 8.57369V11.0391C16.6742 12.0463 17.2096 12.5813 18.2277 12.5918C18.8089 12.5988 19.3948 12.5965 19.9791 12.5942ZM31.779 15.4035H20.8624H9.99833C8.00396 15.4035 6.9018 16.5051 6.88081 18.5194C6.87031 19.4007 6.67087 19.6 5.79965 19.6C5.75726 19.6 5.71607 19.5988 5.67526 19.5976C5.59479 19.5953 5.51584 19.593 5.43226 19.6C4.6555 19.6525 4.08868 20.198 4.07818 20.9848C4.06769 22.8523 4.06769 24.7302 4.08868 26.5977C4.08868 27.4055 4.666 27.951 5.48474 27.993H6.00958C6.61839 28.014 6.85981 28.2448 6.8913 28.8533V29.3254C6.92279 31.025 8.08793 32.179 9.7884 32.1895C11.153 32.2 12.5175 32.2 13.8821 32.1895C15.1102 32.1895 16.2229 31.8223 17.2096 31.0984C17.5612 30.8361 17.9102 30.5739 18.2592 30.3116C18.6082 30.0493 18.9573 29.787 19.3089 29.5247C20.4111 28.7064 21.3768 28.7064 22.4789 29.5352C22.7929 29.7659 23.1048 30.0007 23.4174 30.236C23.8154 30.5356 24.2146 30.836 24.6203 31.1299C25.3445 31.6649 26.1528 32.0636 27.066 32.1056C28.4346 32.1698 29.8113 32.1779 31.189 32.1859C31.3857 32.187 31.5823 32.1882 31.779 32.1895C33.7104 32.2 34.8546 31.0669 34.8651 29.147C34.8756 28.1609 35.0435 27.993 36.0302 27.993C37.1324 27.993 37.6782 27.4579 37.6782 26.3669V21.2261C37.6782 20.135 37.1324 19.6 36.0302 19.6C35.0435 19.5895 34.8756 19.4321 34.8651 18.446C34.8441 16.5261 33.7104 15.4035 31.779 15.4035Z"/>
</mask>
<path fill-rule="evenodd" clip-rule="evenodd" d="M19.9791 12.5942C20.2707 12.593 20.5619 12.5918 20.8519 12.5918C21.152 12.5918 21.4533 12.593 21.7554 12.5942C22.3619 12.5965 22.9715 12.5988 23.5811 12.5918C24.5258 12.5709 25.0611 12.0358 25.0716 11.0811C25.0821 10.2418 25.0821 9.4025 25.0716 8.5632C25.0716 7.56653 24.5153 7 23.5181 7H18.2172C17.2305 7.01049 16.6847 7.56653 16.6742 8.57369V11.0391C16.6742 12.0463 17.2096 12.5813 18.2277 12.5918C18.8089 12.5988 19.3948 12.5965 19.9791 12.5942ZM31.779 15.4035H20.8624H9.99833C8.00396 15.4035 6.9018 16.5051 6.88081 18.5194C6.87031 19.4007 6.67087 19.6 5.79965 19.6C5.75726 19.6 5.71607 19.5988 5.67526 19.5976C5.59479 19.5953 5.51584 19.593 5.43226 19.6C4.6555 19.6525 4.08868 20.198 4.07818 20.9848C4.06769 22.8523 4.06769 24.7302 4.08868 26.5977C4.08868 27.4055 4.666 27.951 5.48474 27.993H6.00958C6.61839 28.014 6.85981 28.2448 6.8913 28.8533V29.3254C6.92279 31.025 8.08793 32.179 9.7884 32.1895C11.153 32.2 12.5175 32.2 13.8821 32.1895C15.1102 32.1895 16.2229 31.8223 17.2096 31.0984C17.5612 30.8361 17.9102 30.5739 18.2592 30.3116C18.6082 30.0493 18.9573 29.787 19.3089 29.5247C20.4111 28.7064 21.3768 28.7064 22.4789 29.5352C22.7929 29.7659 23.1048 30.0007 23.4174 30.236C23.8154 30.5356 24.2146 30.836 24.6203 31.1299C25.3445 31.6649 26.1528 32.0636 27.066 32.1056C28.4346 32.1698 29.8113 32.1779 31.189 32.1859C31.3857 32.187 31.5823 32.1882 31.779 32.1895C33.7104 32.2 34.8546 31.0669 34.8651 29.147C34.8756 28.1609 35.0435 27.993 36.0302 27.993C37.1324 27.993 37.6782 27.4579 37.6782 26.3669V21.2261C37.6782 20.135 37.1324 19.6 36.0302 19.6C35.0435 19.5895 34.8756 19.4321 34.8651 18.446C34.8441 16.5261 33.7104 15.4035 31.779 15.4035Z" fill="#E60000"/>
<path d="M19.9791 12.5942L19.9751 11.5942H19.9751L19.9791 12.5942ZM21.7554 12.5942L21.7593 11.5942L21.7554 12.5942ZM23.5811 12.5918L23.5925 13.5918L23.6033 13.5916L23.5811 12.5918ZM25.0716 11.0811L24.0717 11.0686L24.0717 11.0701L25.0716 11.0811ZM25.0716 8.5632H24.0715L24.0717 8.5757L25.0716 8.5632ZM18.2172 7V5.99994L18.2066 6.00006L18.2172 7ZM16.6742 8.57369L15.6742 8.56327V8.57369H16.6742ZM18.2277 12.5918L18.2398 11.5919L18.238 11.5919L18.2277 12.5918ZM6.88081 18.5194L7.88074 18.5313L7.88075 18.5298L6.88081 18.5194ZM5.67526 19.5976L5.70409 18.598L5.70407 18.598L5.67526 19.5976ZM5.43226 19.6L5.49964 20.5977L5.50745 20.5972L5.51526 20.5965L5.43226 19.6ZM4.07818 20.9848L3.07824 20.9715L3.0782 20.9792L4.07818 20.9848ZM4.08868 26.5977H5.08874L5.08862 26.5864L4.08868 26.5977ZM5.48474 27.993L5.43356 28.9917L5.45913 28.993H5.48474V27.993ZM6.00958 27.993L6.04402 26.9936L6.02681 26.993H6.00958V27.993ZM6.8913 28.8533H7.8913V28.8274L7.88997 28.8016L6.8913 28.8533ZM6.8913 29.3254H5.8913V29.3347L5.89148 29.3439L6.8913 29.3254ZM9.7884 32.1895L9.79609 31.1895L9.79457 31.1895L9.7884 32.1895ZM13.8821 32.1895V31.1895L13.8744 31.1895L13.8821 32.1895ZM17.2096 31.0984L17.8011 31.9047L17.8075 31.9L17.2096 31.0984ZM18.2592 30.3116L17.6584 29.5122L17.6584 29.5122L18.2592 30.3116ZM19.3089 29.5247L18.7128 28.7218L18.711 28.7231L19.3089 29.5247ZM22.4789 29.5352L21.8779 30.3345L21.8867 30.341L22.4789 29.5352ZM23.4174 30.236L22.816 31.035V31.035L23.4174 30.236ZM24.6203 31.1299L25.2145 30.3255L25.2068 30.32L24.6203 31.1299ZM27.066 32.1056L27.1129 31.1067L27.1119 31.1066L27.066 32.1056ZM31.189 32.1859L31.1832 33.1859H31.1832L31.189 32.1859ZM31.779 32.1895L31.7724 33.1895L31.7736 33.1895L31.779 32.1895ZM34.8651 29.147L33.8651 29.1364L33.8651 29.1416L34.8651 29.147ZM36.0302 19.6L36.0196 20.6H36.0302V19.6ZM34.8651 18.446L35.865 18.4353L35.865 18.435L34.8651 18.446ZM20.8519 11.5918C20.5596 11.5918 20.2664 11.593 19.9751 11.5942L19.9831 13.5942C20.275 13.593 20.5642 13.5918 20.8519 13.5918V11.5918ZM21.7593 11.5942C21.4575 11.593 21.1543 11.5918 20.8519 11.5918V13.5918C21.1498 13.5918 21.4492 13.593 21.7516 13.5942L21.7593 11.5942ZM23.5696 11.5919C22.9689 11.5988 22.367 11.5965 21.7593 11.5942L21.7516 13.5942C22.3568 13.5965 22.974 13.5989 23.5925 13.5918L23.5696 11.5919ZM24.0717 11.0701C24.0684 11.365 23.9886 11.4603 23.9661 11.483C23.9433 11.506 23.8495 11.5856 23.5589 11.5921L23.6033 13.5916C24.2574 13.5771 24.9035 13.3787 25.3872 12.8903C25.8712 12.4015 26.0643 11.7519 26.0715 11.0921L24.0717 11.0701ZM24.0717 8.5757C24.0821 9.40667 24.0821 10.2376 24.0717 11.0686L26.0715 11.0936C26.0821 10.246 26.0821 9.39833 26.0715 8.55069L24.0717 8.5757ZM23.5181 8C23.8298 8 23.9321 8.08512 23.9584 8.11163C23.9861 8.1396 24.0716 8.24674 24.0716 8.5632H26.0716C26.0716 7.88298 25.879 7.20853 25.3792 6.70407C24.878 6.19815 24.2035 6 23.5181 6V8ZM18.2172 8H23.5181V6H18.2172V8ZM17.6742 8.58411C17.6776 8.25353 17.7653 8.14215 17.7936 8.11332C17.819 8.08736 17.9179 8.00324 18.2279 7.99994L18.2066 6.00006C17.5298 6.00725 16.8625 6.2064 16.3657 6.71287C15.8718 7.21647 15.6813 7.88669 15.6743 8.56327L17.6742 8.58411ZM17.6742 11.0391V8.57369H15.6742V11.0391H17.6742ZM18.238 11.5919C17.8937 11.5883 17.7935 11.4993 17.7761 11.4819C17.7605 11.4663 17.6742 11.3722 17.6742 11.0391H15.6742C15.6742 11.7132 15.8556 12.3902 16.3622 12.8965C16.867 13.4011 17.5435 13.5848 18.2174 13.5918L18.238 11.5919ZM19.9751 11.5942C19.3894 11.5965 18.8116 11.5988 18.2398 11.5919L18.2157 13.5918C18.8063 13.5989 19.4002 13.5965 19.9831 13.5942L19.9751 11.5942ZM20.8624 16.4035H31.779V14.4035H20.8624V16.4035ZM9.99833 16.4035H20.8624V14.4035H9.99833V16.4035ZM7.88075 18.5298C7.88943 17.6975 8.11757 17.2021 8.40647 16.9134C8.69387 16.6261 9.18137 16.4035 9.99833 16.4035V14.4035C8.82092 14.4035 7.76015 14.7317 6.99263 15.4988C6.22661 16.2644 5.89318 17.3269 5.88086 18.509L7.88075 18.5298ZM5.79965 20.6C6.21222 20.6 6.88702 20.5801 7.36992 20.0975C7.84874 19.6189 7.87579 18.9463 7.88074 18.5313L5.88088 18.5075C5.87977 18.6003 5.87627 18.6723 5.87118 18.7283C5.86604 18.7849 5.86007 18.8161 5.8569 18.8295C5.85383 18.8425 5.85574 18.8285 5.87043 18.7993C5.88635 18.7676 5.91372 18.7252 5.95608 18.6829C5.99852 18.6405 6.04166 18.6125 6.07507 18.5958C6.10599 18.5804 6.12182 18.5779 6.11089 18.5804C6.09945 18.5831 6.07013 18.5885 6.01536 18.5929C5.96101 18.5973 5.89079 18.6 5.79965 18.6V20.6ZM5.64643 20.5972C5.68517 20.5983 5.74056 20.6 5.79965 20.6V18.6C5.77397 18.6 5.74697 18.5993 5.70409 18.598L5.64643 20.5972ZM5.51526 20.5965C5.53448 20.5949 5.55883 20.5947 5.64645 20.5972L5.70407 18.598C5.63076 18.5959 5.4972 18.5911 5.34926 18.6034L5.51526 20.5965ZM5.07809 20.9982C5.08005 20.852 5.12847 20.7709 5.17672 20.7224C5.22913 20.6697 5.32914 20.6092 5.49964 20.5977L5.36488 18.6023C4.11338 18.6868 3.09631 19.6197 3.07827 20.9715L5.07809 20.9982ZM5.08862 26.5864C5.06771 24.7263 5.06769 22.8543 5.07817 20.9905L3.0782 20.9792C3.06768 22.8502 3.06767 24.7341 3.08874 26.6089L5.08862 26.5864ZM5.53593 26.9943C5.33612 26.9841 5.22982 26.9177 5.18089 26.8696C5.13796 26.8274 5.08868 26.7517 5.08868 26.5977H3.08868C3.08868 27.2515 3.32806 27.8525 3.77847 28.2955C4.2229 28.7326 4.81463 28.96 5.43356 28.9917L5.53593 26.9943ZM6.00958 26.993H5.48474V28.993H6.00958V26.993ZM7.88997 28.8016C7.86932 28.4027 7.77305 27.8832 7.36373 27.4856C6.95706 27.0905 6.43758 27.0072 6.04402 26.9936L5.97514 28.9924C6.02151 28.994 6.05429 28.9973 6.07608 29.0005C6.09787 29.0037 6.10473 29.0062 6.10057 29.0049C6.09594 29.0034 6.07861 28.9975 6.05376 28.9834C6.02816 28.9689 5.99891 28.948 5.97014 28.9201C5.94134 28.8921 5.91928 28.8631 5.90345 28.8369C5.88806 28.8115 5.88117 28.7931 5.87912 28.7871C5.87725 28.7816 5.87963 28.787 5.88305 28.8075C5.88648 28.8279 5.89029 28.8595 5.89264 28.905L7.88997 28.8016ZM7.8913 29.3254V28.8533H5.8913V29.3254H7.8913ZM9.79457 31.1895C9.17485 31.1857 8.71858 30.978 8.41722 30.6799C8.11571 30.3817 7.90262 29.927 7.89113 29.3069L5.89148 29.3439C5.91148 30.4234 6.2967 31.3955 7.01075 32.1018C7.72494 32.8083 8.70148 33.1828 9.78223 33.1895L9.79457 31.1895ZM13.8744 31.1895C12.515 31.2 11.1555 31.2 9.79609 31.1895L9.78071 33.1895C11.1504 33.2 12.5201 33.2 13.8898 33.1895L13.8744 31.1895ZM16.618 30.2921C15.8019 30.8909 14.8963 31.1895 13.8821 31.1895V33.1895C15.3242 33.1895 16.6438 32.7537 17.8011 31.9047L16.618 30.2921ZM17.6584 29.5122C17.3092 29.7746 16.9616 30.0358 16.6117 30.2968L17.8075 31.9C18.1608 31.6365 18.5112 31.3731 18.86 31.111L17.6584 29.5122ZM18.711 28.7231C18.3577 28.9867 18.0072 29.2501 17.6584 29.5122L18.86 31.111C19.2092 30.8486 19.5568 30.5873 19.9068 30.3263L18.711 28.7231ZM23.0799 28.736C22.4198 28.2396 21.6972 27.9143 20.8965 27.9123C20.0958 27.9103 19.3729 28.2317 18.7128 28.7218L19.905 30.3276C20.3471 29.9994 20.6581 29.9117 20.8914 29.9123C21.1245 29.9129 21.4359 30.002 21.8779 30.3345L23.0799 28.736ZM24.0187 29.437C23.707 29.2023 23.3905 28.9641 23.0711 28.7294L21.8867 30.341C22.1953 30.5678 22.5026 30.7991 22.816 31.035L24.0187 29.437ZM25.2068 30.32C24.8098 30.0324 24.418 29.7376 24.0187 29.437L22.816 31.035C23.2128 31.3337 23.6193 31.6396 24.0337 31.9398L25.2068 30.32ZM27.1119 31.1066C26.4703 31.0771 25.8512 30.796 25.2145 30.3256L24.0261 31.9342C24.8379 32.5339 25.8353 33.0501 27.0201 33.1045L27.1119 31.1066ZM31.1948 31.1859C29.8136 31.1779 28.4576 31.1698 27.1129 31.1067L27.0191 33.1045C28.4117 33.1699 29.809 33.1779 31.1832 33.1859L31.1948 31.1859ZM31.7857 31.1895C31.5885 31.1882 31.3914 31.1871 31.1948 31.1859L31.1832 33.1859C31.3799 33.187 31.5762 33.1882 31.7724 33.1895L31.7857 31.1895ZM33.8651 29.1416C33.8609 29.9041 33.6361 30.3881 33.3399 30.6805C33.0434 30.9731 32.554 31.1937 31.7845 31.1895L31.7736 33.1895C32.9354 33.1958 33.9838 32.8551 34.7449 32.1039C35.5062 31.3524 35.8587 30.3099 35.865 29.1525L33.8651 29.1416ZM36.0302 26.993C35.7699 26.993 35.4923 27.0027 35.2359 27.0543C34.9686 27.1082 34.6475 27.2223 34.3774 27.4901C34.1075 27.7577 33.9907 28.0776 33.9344 28.3439C33.8804 28.5994 33.8679 28.8765 33.8651 29.1364L35.865 29.1577C35.8662 29.0469 35.8695 28.9598 35.8748 28.8901C35.8801 28.8198 35.8867 28.7786 35.8912 28.7575C35.9002 28.7149 35.8889 28.8079 35.7857 28.9103C35.6823 29.0128 35.5888 29.0234 35.6308 29.015C35.6517 29.0107 35.6927 29.0046 35.7629 29C35.8325 28.9954 35.9195 28.993 36.0302 28.993V26.993ZM36.6782 26.3669C36.6782 26.7581 36.5811 26.8615 36.5657 26.8767C36.5475 26.8947 36.4345 26.993 36.0302 26.993V28.993C36.7281 28.993 37.4391 28.8238 37.9693 28.3015C38.5023 27.7764 38.6782 27.0667 38.6782 26.3669H36.6782ZM36.6782 21.2261V26.3669H38.6782V21.2261H36.6782ZM36.0302 20.6C36.4345 20.6 36.5475 20.6983 36.5657 20.7163C36.5811 20.7315 36.6782 20.8349 36.6782 21.2261H38.6782C38.6782 20.5263 38.5023 19.8166 37.9693 19.2915C37.4391 18.7692 36.7281 18.6 36.0302 18.6V20.6ZM33.8651 18.4566C33.8679 18.7163 33.8804 18.9933 33.9346 19.2487C33.9914 19.5157 34.1092 19.8351 34.3803 20.1017C34.65 20.3671 34.9696 20.4798 35.233 20.5336C35.4862 20.5854 35.7615 20.5972 36.0196 20.5999L36.0408 18.6001C35.9291 18.5989 35.841 18.5957 35.7701 18.5905C35.6986 18.5853 35.6562 18.5788 35.6338 18.5742C35.5878 18.5648 35.6797 18.5745 35.7828 18.676C35.8873 18.7787 35.8995 18.8732 35.891 18.833C35.8866 18.8127 35.8801 18.7722 35.8748 18.7022C35.8695 18.6329 35.8662 18.5461 35.865 18.4353L33.8651 18.4566ZM31.779 16.4035C32.5518 16.4035 33.0402 16.6245 33.336 16.9165C33.6315 17.2082 33.8567 17.6911 33.8651 18.4569L35.865 18.435C35.8524 17.2809 35.5003 16.2426 34.7409 15.4931C33.9818 14.7437 32.9376 14.4035 31.779 14.4035V16.4035Z" fill="#E60000" mask="url(#path-1-inside-1_7_385)"/>
</g>
</g>
<defs>
<filter id="filter0_b_7_385" x="-7.92871" y="-5" width="57.6064" height="49.1973" filterUnits="userSpaceOnUse" color-interpolation-filters="sRGB">
<feFlood flood-opacity="0" result="BackgroundImageFix"/>
<feGaussianBlur in="BackgroundImageFix" stdDeviation="6"/>
<feComposite in2="SourceAlpha" operator="in" result="effect1_backgroundBlur_7_385"/>
<feBlend mode="normal" in="SourceGraphic" in2="effect1_backgroundBlur_7_385" result="shape"/>
</filter>
<clipPath id="clip0_7_385">
<rect width="33.6" height="25.2" fill="white" transform="translate(4.06738 7)"/>
</clipPath>
</defs>
</svg>
