<svg width="16" height="15" viewBox="0 0 16 15" fill="none" xmlns="http://www.w3.org/2000/svg">
<path d="M1.125 2.5C1.125 1.46447 1.96447 0.625 3 0.625H4.875C5.91053 0.625 6.75 1.46447 6.75 2.5V4.375C6.75 5.41053 5.91053 6.25 4.875 6.25H3C1.96447 6.25 1.125 5.41053 1.125 4.375V2.5Z" stroke="#999999" stroke-linecap="round" stroke-linejoin="round"/>
<path d="M1.125 10.625C1.125 9.58947 1.96447 8.75 3 8.75H4.875C5.91053 8.75 6.75 9.58947 6.75 10.625V12.5C6.75 13.5355 5.91053 14.375 4.875 14.375H3C1.96447 14.375 1.125 13.5355 1.125 12.5V10.625Z" stroke="#999999" stroke-linecap="round" stroke-linejoin="round"/>
<path d="M9.25 2.5C9.25 1.46447 10.0895 0.625 11.125 0.625H13C14.0355 0.625 14.875 1.46447 14.875 2.5V4.375C14.875 5.41053 14.0355 6.25 13 6.25H11.125C10.0895 6.25 9.25 5.41053 9.25 4.375V2.5Z" stroke="#999999" stroke-linecap="round" stroke-linejoin="round"/>
<path d="M9.25 10.625C9.25 9.58947 10.0895 8.75 11.125 8.75H13C14.0355 8.75 14.875 9.58947 14.875 10.625V12.5C14.875 13.5355 14.0355 14.375 13 14.375H11.125C10.0895 14.375 9.25 13.5355 9.25 12.5V10.625Z" stroke="#999999" stroke-linecap="round" stroke-linejoin="round"/>
</svg>
