<svg width="17" height="17" viewBox="0 0 25 24" fill="none" xmlns="http://www.w3.org/2000/svg">
<path d="M6.238 10.958C7.17874 10.958 8.02756 10.4379 8.60811 9.69762C9.51014 8.54749 10.647 7.5903 11.9465 6.89826C12.789 6.44958 13.52 5.783 13.8745 4.89675C14.1226 4.27662 14.25 3.61485 14.25 2.94695V2.20801C14.25 1.72476 14.6418 1.33301 15.125 1.33301C16.5747 1.33301 17.75 2.50826 17.75 3.95801C17.75 5.30158 17.4472 6.57441 16.9061 7.712C16.5962 8.36339 17.0309 9.20801 17.7522 9.20801M17.7522 9.20801H21.399C22.5968 9.20801 23.6689 10.0177 23.7957 11.2087C23.8481 11.7013 23.875 12.2015 23.875 12.708C23.875 16.0302 22.7178 19.0822 20.7845 21.4828C20.3323 22.0443 19.6332 22.333 18.9123 22.333H14.227C13.6627 22.333 13.1021 22.242 12.5668 22.0636L8.93324 20.8524C8.39791 20.674 7.83732 20.583 7.27304 20.583H5.38824M17.7522 9.20801H15.125M5.38824 20.583C5.48485 20.8217 5.58999 21.056 5.70327 21.2856C5.93326 21.7517 5.61223 22.333 5.09245 22.333H4.03337C2.99654 22.333 2.0349 21.7287 1.73232 20.737C1.33743 19.4427 1.125 18.0689 1.125 16.6455C1.125 14.8343 1.46894 13.1034 2.09507 11.5146C2.45097 10.6115 3.36189 10.083 4.33258 10.083H5.5608C6.11138 10.083 6.43019 10.7316 6.14435 11.2021C5.1802 12.7894 4.625 14.6526 4.625 16.6455C4.625 18.0379 4.89604 19.3671 5.38824 20.583Z" stroke="white" stroke-width="2" stroke-linecap="round" stroke-linejoin="round"/>
</svg>
