<svg width="17" height="17" viewBox="0 0 25 24" fill="none" xmlns="http://www.w3.org/2000/svg">
<path d="M20.7997 4.57499C24.9002 8.67549 24.9002 15.3237 20.7997 19.4242M17.7064 7.66868C20.0984 10.0606 20.0984 13.9388 17.7064 16.3307M6.375 7.62467L11.8813 2.11839C12.4325 1.56717 13.375 1.95757 13.375 2.73711V21.2622C13.375 22.0418 12.4325 22.4322 11.8813 21.881L6.375 16.3747H3.76056C2.73466 16.3747 1.77356 15.7838 1.5011 14.7947C1.25595 13.9048 1.125 12.9675 1.125 11.9997C1.125 11.0318 1.25595 10.0945 1.5011 9.20461C1.77356 8.21555 2.73466 7.62467 3.76056 7.62467H6.375Z" stroke="white" stroke-width="2" stroke-linecap="round" stroke-linejoin="round"/>
</svg>
