<svg width="18" height="17" viewBox="0 0 18 17" fill="none" xmlns="http://www.w3.org/2000/svg">
<path d="M8.56712 1.41569C8.72724 1.03071 9.27261 1.03071 9.43273 1.41569L11.2044 5.67524C11.2719 5.83753 11.4245 5.94843 11.5997 5.96247L16.1983 6.33113C16.6139 6.36445 16.7824 6.88313 16.4657 7.15438L12.9621 10.1556C12.8287 10.2699 12.7704 10.4494 12.8111 10.6203L13.8815 15.1077C13.9783 15.5133 13.5371 15.8339 13.1813 15.6165L9.24426 13.2118C9.09425 13.1202 8.90559 13.1202 8.75558 13.2118L4.81859 15.6165C4.46276 15.8339 4.02155 15.5133 4.1183 15.1077L5.18871 10.6203C5.22949 10.4494 5.17119 10.2699 5.0377 10.1556L1.53409 7.15438C1.21744 6.88313 1.38596 6.36446 1.80158 6.33114L6.40012 5.96247C6.57534 5.94843 6.72797 5.83753 6.79547 5.67524L8.56712 1.41569Z" stroke="#999999" stroke-linecap="round" stroke-linejoin="round"/>
</svg>
